<svg width="512" height="356" viewBox="0 0 512 356" fill="none" xmlns="http://www.w3.org/2000/svg">
<path d="M511.13 0H0V355.189H511.13V0Z" fill="#9EC7ED"/>
<mask id="mask0_60_253" style="mask-type:luminance" maskUnits="userSpaceOnUse" x="0" y="0" width="512" height="356">
<path d="M511.13 0H0V355.189H511.13V0Z" fill="white"/>
</mask>
<g mask="url(#mask0_60_253)">
<path d="M-60.667 288.781C-34.3341 262.516 7.66298 261.205 44.4839 266.449C81.3048 271.693 119.052 281.774 155.037 272.303C191.7 262.651 221.039 233.9 257.679 224.135C309.87 210.234 364.977 237.403 418.57 230.758C454.238 226.328 486.131 207.386 518.703 192.151C551.251 176.917 588.344 164.982 622.723 175.447C625.255 209.443 595.803 236.838 585.563 269.364C576.047 299.608 582.512 336.112 561.92 360.207C548.607 375.781 527.36 381.635 507.288 385.727C415.021 404.533 319.567 403.222 226.102 391.716C132.637 380.211 40.7543 358.693 -50.9249 337.22" fill="#FAFAF7"/>
<path d="M419.813 252.412C418.299 251.756 416.762 250.897 415.247 249.812C410.455 246.445 406.115 241.133 403.606 235.663C399.312 226.282 401.03 218.236 408.082 214.664C413.371 211.997 418.073 211.884 422.051 214.37C433.42 221.468 433.398 247.597 433.353 250.536V252.254L431.748 252.909C428.131 254.401 424.017 254.198 419.836 252.389L419.813 252.412ZM418.389 218.326C416.197 217.377 413.575 217.716 410.41 219.321C404.126 222.485 406.861 230.306 408.331 233.515C412.264 242.127 421.192 249.812 428.131 248.592C427.973 240.296 426.232 223.141 419.271 218.801C418.977 218.62 418.683 218.462 418.389 218.326Z" fill="#D60B2D"/>
<path d="M435.522 255.237C434.234 254.672 433.013 253.926 431.928 252.954L430.64 251.802L431.182 250.174C432.132 247.371 440.766 222.734 453.853 219.795C458.419 218.778 462.827 220.428 466.941 224.7C472.411 230.396 471.371 238.556 464.206 245.992C456.453 254.039 444.043 258.876 435.522 255.215V255.237ZM436.765 250.061C442.913 253.542 453.876 249.225 460.453 242.399C462.895 239.867 468.071 233.402 463.188 228.317C460.386 225.401 457.718 224.271 455.006 224.881C446.982 226.667 439.681 242.263 436.765 250.038V250.061Z" fill="#D60B2D"/>
<path d="M480.824 281.059L376.728 263.284L359.973 361.409L464.069 379.184L480.824 281.059Z" fill="#2C8E36"/>
<mask id="mask1_60_253" style="mask-type:luminance" maskUnits="userSpaceOnUse" x="359" y="263" width="122" height="117">
<path d="M480.824 281.059L376.728 263.284L359.973 361.409L464.069 379.184L480.824 281.059Z" fill="white"/>
</mask>
<g mask="url(#mask1_60_253)">
<path d="M443.706 246.634L421.514 242.845L397.329 384.484L419.52 388.274L443.706 246.634Z" fill="#D60B2D"/>
<g style="mix-blend-mode:multiply" opacity="0.3">
<path d="M492.611 335.488L351.818 311.447L349.295 326.219L490.088 350.26L492.611 335.488Z" fill="#33992A"/>
</g>
<path d="M488.703 342.959L492.493 320.767L350.853 296.582L347.064 318.774L488.703 342.959Z" fill="#D60B2D"/>
<g style="mix-blend-mode:multiply" opacity="0.3">
<path d="M502.188 279.425L361.396 255.384L356.731 282.701L497.524 306.741L502.188 279.425Z" fill="#33992A"/>
</g>
</g>
<path d="M495.137 264.195L370.565 242.924L365.318 273.649L489.891 294.921L495.137 264.195Z" fill="#319D3C"/>
<path d="M448.063 251.752L416.491 246.361L409.936 284.751L441.508 290.142L448.063 251.752Z" fill="#D60B2D"/>
<path d="M100.766 54.3386C100.766 55.4235 100.766 56.4633 100.789 57.5256C100.789 55.4913 100.766 54.3386 100.766 54.3386Z" fill="#65A387"/>
<path d="M229.628 384.235C229.628 384.235 288.148 401.617 345.267 366.853C295.313 377.002 248.185 353.811 248.185 353.811C248.185 353.811 272.461 353.811 320.991 323.386C225.356 348.002 159.693 320.493 159.693 320.493C159.693 320.493 202.21 319.408 245.337 287.176C161.117 284.283 126.85 223.457 126.85 223.457C126.85 223.457 152.55 226.35 202.504 213.308C142.56 213.308 105.422 178.544 105.422 178.544C105.422 178.544 119.708 177.097 159.67 168.395C145.928 166.293 73.9358 146.899 72.6248 64.2162C72.4892 80.3325 67.765 156.754 -8.76996 168.395C31.1928 177.075 45.4781 178.544 45.4781 178.544C45.4781 178.544 8.3634 213.308 -51.6033 213.308C-1.64989 226.35 24.0501 223.457 24.0501 223.457C24.0501 223.457 -10.2166 284.283 -94.4367 287.176C-42.2003 322.844 -8.79257 320.493 -8.79257 320.493C-8.79257 320.493 -47.8964 355.596 -170.09 355.076C-121.561 385.501 -97.2848 385.501 -97.2848 385.501C-97.2848 385.501 -115.413 418.072 -190.953 425.78C-133.857 460.544 -78.4109 433.488 -78.4109 433.488C-78.4109 433.488 -84.4234 443.433 -131.551 465.155C-65.8887 481.09 233.177 445.4 282.429 433.465C235.324 411.743 229.605 384.212 229.605 384.212L229.628 384.235Z" fill="#518D71"/>
<mask id="mask2_60_253" style="mask-type:luminance" maskUnits="userSpaceOnUse" x="-191" y="64" width="537" height="406">
<path d="M229.628 384.235C229.628 384.235 288.148 401.617 345.267 366.853C295.313 377.002 248.185 353.811 248.185 353.811C248.185 353.811 272.461 353.811 320.991 323.386C225.356 348.002 159.693 320.493 159.693 320.493C159.693 320.493 202.21 319.408 245.337 287.176C161.117 284.283 126.85 223.457 126.85 223.457C126.85 223.457 152.55 226.35 202.504 213.308C142.56 213.308 105.422 178.544 105.422 178.544C105.422 178.544 119.708 177.097 159.67 168.395C145.928 166.293 73.9358 146.899 72.6248 64.2162C72.4892 80.3325 67.765 156.754 -8.76996 168.395C31.1928 177.075 45.4781 178.544 45.4781 178.544C45.4781 178.544 8.3634 213.308 -51.6033 213.308C-1.64989 226.35 24.0501 223.457 24.0501 223.457C24.0501 223.457 -10.2166 284.283 -94.4367 287.176C-42.2003 322.844 -8.79257 320.493 -8.79257 320.493C-8.79257 320.493 -47.8964 355.596 -170.09 355.076C-121.561 385.501 -97.2848 385.501 -97.2848 385.501C-97.2848 385.501 -115.413 418.072 -190.953 425.78C-133.857 460.544 -78.4109 433.488 -78.4109 433.488C-78.4109 433.488 -84.4234 443.433 -131.551 465.155C-65.8887 481.09 233.177 445.4 282.429 433.465C235.324 411.743 229.605 384.212 229.605 384.212L229.628 384.235Z" fill="white"/>
</mask>
<g mask="url(#mask2_60_253)">
<path d="M-42.7654 323.161C-42.7654 323.161 -26.1067 331.818 19.2356 309.825C4.56605 327.817 -10.759 337.83 -10.759 337.83C-10.759 337.83 27.2372 337.175 45.9076 313.825C52.5756 326.483 86.5711 333.829 86.5711 333.829C86.5711 333.829 73.9132 309.169 79.2476 289.165C112.588 318.504 136.57 319.838 136.57 319.838L129.246 305.846C129.246 305.846 148.572 323.839 193.914 323.183C259.916 301.846 267.24 272.529 267.24 272.529C267.24 272.529 193.914 295.2 127.257 262.538C139.915 281.209 161.253 288.532 161.253 288.532C161.253 288.532 125.924 291.855 95.2508 270.54C99.9071 282.542 100.585 285.865 100.585 285.865C100.585 285.865 72.5796 278.541 64.578 253.859C53.2537 283.198 37.2505 291.199 37.2505 291.199V268.528C37.2505 268.528 -15.4153 306.524 -100.065 286.52C-98.0758 310.525 -42.7428 323.183 -42.7428 323.183L-42.7654 323.161Z" fill="#3F6B59"/>
<path d="M-9.42569 184.511L45.4779 178.567C45.4779 178.567 42.5621 195.858 31.8933 201.193C51.2191 199.204 58.5653 187.201 58.5653 187.201C58.5653 187.201 64.5551 203.86 87.2263 207.861C83.2255 195.203 84.5591 181.867 84.5591 181.867C84.5591 181.867 105.897 207.205 155.217 199.204C135.891 191.202 105.422 178.589 105.422 178.589L159.218 175.199C159.218 175.199 167.22 158.54 165.208 157.862C163.196 157.184 105.219 161.185 85.8701 145.204C79.2021 165.864 54.5419 168.531 54.5419 168.531L68.5333 152.528C68.5333 152.528 6.5323 172.532 -30.1304 167.853C2.5315 182.522 -12.1381 185.19 -12.1381 185.19" fill="#3F6B59"/>
<path d="M62.0685 84.8984C56.8923 85.1923 53.0271 90.8431 53.7052 95.9741C54.3833 101.105 58.7006 105.309 63.6281 106.914C68.5556 108.519 73.9805 107.909 78.9532 106.394C88.4466 103.501 97.488 96.3583 99.0702 86.5711C99.6805 82.8189 98.9346 78.5243 95.9509 76.1735" fill="#3F6B59"/>
</g>
<path d="M69.234 62.5209L61.2324 91.1819C61.2324 91.1819 71.2231 94.5046 85.8927 91.1819C81.2364 80.5131 76.5575 61.8428 76.5575 61.8428" fill="#DDB34B"/>
<path d="M73.2352 13.2908L83.9718 35.0578L107.977 38.5613L90.6172 55.4913L94.7084 79.4056L73.2352 68.1265L51.762 79.4056L55.8532 55.4913L38.4712 38.5613L62.4986 35.0578L73.2352 13.2908Z" fill="#DDB34B"/>
<mask id="mask3_60_253" style="mask-type:luminance" maskUnits="userSpaceOnUse" x="38" y="13" width="70" height="67">
<path d="M73.2352 13.2908L83.9718 35.0578L107.977 38.5613L90.6172 55.4913L94.7084 79.4056L73.2352 68.1265L51.762 79.4056L55.8532 55.4913L38.4712 38.5613L62.4986 35.0578L73.2352 13.2908Z" fill="white"/>
</mask>
<g mask="url(#mask3_60_253)">
<path d="M73.2345 13.2908V48.5068L62.4979 35.0578L60.5767 15.845L73.2345 13.2908Z" fill="#CE8943"/>
<path d="M119.233 32.5036L105.897 39.8497L73.2349 48.5068L83.9715 35.0578L119.233 32.5036Z" fill="#CE8943"/>
<path d="M105.241 75.8342L94.7081 79.4055L73.2349 48.5067L90.6169 55.4912L105.241 75.8342Z" fill="#CE8943"/>
<path d="M54.5645 85.1694L51.7617 79.4055L73.2349 48.5067V68.1264L54.5645 85.1694Z" fill="#CE8943"/>
<path d="M48.5749 61.8429L55.8532 55.4914L73.2352 48.5069L38.4712 38.5615L48.5749 61.8429Z" fill="#CE8943"/>
</g>
<path d="M30.6496 264.64C30.6496 264.64 29.9941 253.497 36.549 253.497C43.104 253.497 41.793 265.296 41.793 265.296" fill="#DDB34B"/>
<path d="M53.6213 281.826C55.2209 271.993 48.5467 262.726 38.7142 261.126C28.8816 259.527 19.614 266.201 18.0145 276.033C16.4149 285.866 23.089 295.134 32.9216 296.733C42.7542 298.333 52.0218 291.659 53.6213 281.826Z" fill="#FAFAF7"/>
<mask id="mask4_60_253" style="mask-type:luminance" maskUnits="userSpaceOnUse" x="17" y="260" width="37" height="37">
<path d="M53.6213 281.826C55.2209 271.993 48.5467 262.726 38.7142 261.126C28.8816 259.527 19.614 266.201 18.0145 276.033C16.4149 285.866 23.089 295.134 32.9216 296.733C42.7542 298.333 52.0218 291.659 53.6213 281.826Z" fill="white"/>
</mask>
<g mask="url(#mask4_60_253)">
<path d="M63.6733 272.031H5.94434V287.786H63.6733V272.031Z" fill="#DDB34B"/>
</g>
<path d="M192.218 311.045C192.218 311.045 191.563 299.901 198.118 299.901C204.673 299.901 203.362 311.7 203.362 311.7" fill="#DDB34B"/>
<path d="M215.173 328.152C216.725 318.311 210.005 309.076 200.165 307.525C190.325 305.973 181.09 312.693 179.538 322.533C177.987 332.373 184.706 341.608 194.546 343.16C204.387 344.711 213.622 337.992 215.173 328.152Z" fill="#80B4E3"/>
<mask id="mask5_60_253" style="mask-type:luminance" maskUnits="userSpaceOnUse" x="179" y="307" width="37" height="37">
<path d="M215.173 328.152C216.725 318.312 210.005 309.077 200.165 307.525C190.325 305.974 181.09 312.693 179.538 322.533C177.987 332.374 184.706 341.608 194.546 343.16C204.387 344.711 213.622 337.992 215.173 328.152Z" fill="white"/>
</mask>
<g mask="url(#mask5_60_253)">
<path d="M225.242 318.459H167.513V334.213H225.242V318.459Z" fill="#3E434C"/>
</g>
<path d="M108.497 205.487C108.497 205.487 107.841 194.344 114.396 194.344C120.951 194.344 119.64 206.143 119.64 206.143" fill="#DDB34B"/>
<path d="M113.649 237.81C123.611 237.81 131.687 229.734 131.687 219.773C131.687 209.811 123.611 201.735 113.649 201.735C103.688 201.735 95.6118 209.811 95.6118 219.773C95.6118 229.734 103.688 237.81 113.649 237.81Z" fill="#3E434C"/>
<mask id="mask6_60_253" style="mask-type:luminance" maskUnits="userSpaceOnUse" x="95" y="201" width="37" height="37">
<path d="M113.649 237.81C123.611 237.81 131.687 229.734 131.687 219.773C131.687 209.811 123.611 201.735 113.649 201.735C103.688 201.735 95.6118 209.811 95.6118 219.773C95.6118 229.734 103.688 237.81 113.649 237.81Z" fill="white"/>
</mask>
<g mask="url(#mask6_60_253)">
<path d="M145.249 232.317H80.1064V209.171H145.249V232.317ZM87.5204 224.926H137.858V216.585H87.5204V224.926Z" fill="#BA253E"/>
</g>
</g>
<path d="M476.23 34.2441H413.642V123.753H476.23V34.2441Z" fill="#CD374C"/>
<path d="M468.5 44.845H421.35V113.13H468.5V44.845Z" fill="#FAFAF7"/>
<path fill-rule="evenodd" clip-rule="evenodd" d="M219.41 75.8117C219.41 78.3207 217.376 80.355 214.867 80.355C212.358 80.355 210.324 78.3207 210.324 75.8117C210.324 73.3027 212.358 71.2684 214.867 71.2684C217.376 71.2684 219.41 73.3027 219.41 75.8117Z" fill="#FAFAF7"/>
<path d="M344.001 86.7064C346.51 86.7064 348.545 84.6723 348.545 82.1632C348.545 79.654 346.51 77.6199 344.001 77.6199C341.492 77.6199 339.458 79.654 339.458 82.1632C339.458 84.6723 341.492 86.7064 344.001 86.7064Z" fill="#FAFAF7"/>
<path fill-rule="evenodd" clip-rule="evenodd" d="M159.783 181.98C159.783 184.489 157.749 186.523 155.24 186.523C152.731 186.523 150.696 184.489 150.696 181.98C150.696 179.471 152.731 177.436 155.24 177.436C157.749 177.436 159.783 179.471 159.783 181.98Z" fill="#FAFAF7"/>
<path fill-rule="evenodd" clip-rule="evenodd" d="M232.838 117.605C232.838 120.114 230.804 122.149 228.295 122.149C225.786 122.149 223.751 120.114 223.751 117.605C223.751 115.096 225.786 113.062 228.295 113.062C230.804 113.062 232.838 115.096 232.838 117.605Z" fill="#FAFAF7"/>
<path fill-rule="evenodd" clip-rule="evenodd" d="M181.709 18.286C181.709 20.795 179.674 22.8293 177.165 22.8293C174.656 22.8293 172.622 20.795 172.622 18.286C172.622 15.777 174.656 13.7427 177.165 13.7427C179.674 13.7427 181.709 15.777 181.709 18.286Z" fill="#FAFAF7"/>
<path fill-rule="evenodd" clip-rule="evenodd" d="M52.734 21.36C52.734 23.869 50.6997 25.9033 48.1907 25.9033C45.6818 25.9033 43.6475 23.869 43.6475 21.36C43.6475 18.8511 45.6818 16.8168 48.1907 16.8168C50.6997 16.8168 52.734 18.8511 52.734 21.36Z" fill="#FAFAF7"/>
<path fill-rule="evenodd" clip-rule="evenodd" d="M182.951 240.002C182.951 242.511 180.917 244.546 178.408 244.546C175.899 244.546 173.865 242.511 173.865 240.002C173.865 237.494 175.899 235.459 178.408 235.459C180.917 235.459 182.951 237.494 182.951 240.002Z" fill="#FAFAF7"/>
<path fill-rule="evenodd" clip-rule="evenodd" d="M330.348 20.117C330.348 22.626 328.314 24.6603 325.805 24.6603C323.296 24.6603 321.261 22.626 321.261 20.117C321.261 17.608 323.296 15.5737 325.805 15.5737C328.314 15.5737 330.348 17.608 330.348 20.117Z" fill="#FAFAF7"/>
<path fill-rule="evenodd" clip-rule="evenodd" d="M194.253 102.755C194.253 104.021 193.236 105.06 191.948 105.06C190.659 105.06 189.642 104.043 189.642 102.755C189.642 101.466 190.659 100.449 191.948 100.449C193.236 100.449 194.253 101.466 194.253 102.755Z" fill="#FAFAF7"/>
<path fill-rule="evenodd" clip-rule="evenodd" d="M135.914 48.1C135.914 49.3658 134.897 50.4055 133.608 50.4055C132.32 50.4055 131.303 49.3884 131.303 48.1C131.303 46.8116 132.32 45.7944 133.608 45.7944C134.897 45.7944 135.914 46.8116 135.914 48.1Z" fill="#FAFAF7"/>
<path fill-rule="evenodd" clip-rule="evenodd" d="M25.3162 67.426C25.3162 68.6918 24.299 69.7315 23.0106 69.7315C21.7222 69.7315 20.7051 68.7144 20.7051 67.426C20.7051 66.1376 21.7222 65.1204 23.0106 65.1204C24.299 65.1204 25.3162 66.1376 25.3162 67.426Z" fill="#FAFAF7"/>
<path fill-rule="evenodd" clip-rule="evenodd" d="M228.588 196.288C228.588 197.553 227.571 198.593 226.282 198.593C224.994 198.593 223.977 197.576 223.977 196.288C223.977 194.999 224.994 193.982 226.282 193.982C227.571 193.982 228.588 194.999 228.588 196.288Z" fill="#FAFAF7"/>
<path fill-rule="evenodd" clip-rule="evenodd" d="M345.989 156.799C345.989 158.065 344.972 159.105 343.684 159.105C342.396 159.105 341.378 158.088 341.378 156.799C341.378 155.511 342.396 154.494 343.684 154.494C344.972 154.494 345.989 155.511 345.989 156.799Z" fill="#FAFAF7"/>
<path d="M320.448 181.482C321.084 181.482 321.6 180.966 321.6 180.33C321.6 179.693 321.084 179.177 320.448 179.177C319.811 179.177 319.295 179.693 319.295 180.33C319.295 180.966 319.811 181.482 320.448 181.482Z" fill="#FAFAF7"/>
<path fill-rule="evenodd" clip-rule="evenodd" d="M276.982 116.656C276.982 117.289 276.462 117.809 275.829 117.809C275.196 117.809 274.676 117.289 274.676 116.656C274.676 116.023 275.196 115.503 275.829 115.503C276.462 115.503 276.982 116.023 276.982 116.656Z" fill="#FAFAF7"/>
<path fill-rule="evenodd" clip-rule="evenodd" d="M433.057 180.194C433.057 180.827 432.538 181.347 431.905 181.347C431.272 181.347 430.752 180.827 430.752 180.194C430.752 179.561 431.272 179.041 431.905 179.041C432.538 179.041 433.057 179.561 433.057 180.194Z" fill="#FAFAF7"/>
<path fill-rule="evenodd" clip-rule="evenodd" d="M21.6307 112.859C21.6307 113.491 21.1109 114.011 20.478 114.011C19.8451 114.011 19.3252 113.491 19.3252 112.859C19.3252 112.226 19.8451 111.706 20.478 111.706C21.1109 111.706 21.6307 112.226 21.6307 112.859Z" fill="#FAFAF7"/>
<path fill-rule="evenodd" clip-rule="evenodd" d="M194.027 137.406C194.027 138.039 193.507 138.559 192.874 138.559C192.241 138.559 191.721 138.039 191.721 137.406C191.721 136.773 192.241 136.253 192.874 136.253C193.507 136.253 194.027 136.773 194.027 137.406Z" fill="#FAFAF7"/>
<path fill-rule="evenodd" clip-rule="evenodd" d="M166.519 73.8679C166.519 74.5008 165.999 75.0206 165.366 75.0206C164.733 75.0206 164.213 74.5008 164.213 73.8679C164.213 73.235 164.733 72.7151 165.366 72.7151C165.999 72.7151 166.519 73.235 166.519 73.8679Z" fill="#FAFAF7"/>
<path fill-rule="evenodd" clip-rule="evenodd" d="M150.064 28.6385C150.064 29.2714 149.544 29.7913 148.911 29.7913C148.278 29.7913 147.758 29.2714 147.758 28.6385C147.758 28.0056 148.278 27.4857 148.911 27.4857C149.544 27.4857 150.064 28.0056 150.064 28.6385Z" fill="#FAFAF7"/>
<path d="M248.953 173.865C249.59 173.865 250.106 173.349 250.106 172.712C250.106 172.076 249.59 171.56 248.953 171.56C248.316 171.56 247.8 172.076 247.8 172.712C247.8 173.349 248.316 173.865 248.953 173.865Z" fill="#FAFAF7"/>
<path fill-rule="evenodd" clip-rule="evenodd" d="M143.238 142.356C143.238 142.989 142.718 143.509 142.085 143.509C141.452 143.509 140.932 142.989 140.932 142.356C140.932 141.723 141.452 141.203 142.085 141.203C142.718 141.203 143.238 141.723 143.238 142.356Z" fill="#FAFAF7"/>
<path fill-rule="evenodd" clip-rule="evenodd" d="M253.09 139.892C253.09 140.525 252.57 141.045 251.937 141.045C251.305 141.045 250.785 140.525 250.785 139.892C250.785 139.259 251.305 138.739 251.937 138.739C252.57 138.739 253.09 139.259 253.09 139.892Z" fill="#FAFAF7"/>
<path fill-rule="evenodd" clip-rule="evenodd" d="M272.506 47.9869C272.506 48.6198 271.986 49.1397 271.353 49.1397C270.721 49.1397 270.201 48.6198 270.201 47.9869C270.201 47.354 270.721 46.8341 271.353 46.8341C271.986 46.8341 272.506 47.354 272.506 47.9869Z" fill="#FAFAF7"/>
<path fill-rule="evenodd" clip-rule="evenodd" d="M221.739 35.8941C221.739 36.527 221.219 37.0469 220.586 37.0469C219.953 37.0469 219.434 36.527 219.434 35.8941C219.434 35.2612 219.953 34.7413 220.586 34.7413C221.219 34.7413 221.739 35.2612 221.739 35.8941Z" fill="#FAFAF7"/>
<path fill-rule="evenodd" clip-rule="evenodd" d="M104.314 124.454C104.314 125.087 103.794 125.607 103.162 125.607C102.529 125.607 102.009 125.087 102.009 124.454C102.009 123.821 102.529 123.301 103.162 123.301C103.794 123.301 104.314 123.821 104.314 124.454Z" fill="#FAFAF7"/>
<path fill-rule="evenodd" clip-rule="evenodd" d="M187.902 174.86C187.902 175.492 187.382 176.012 186.749 176.012C186.116 176.012 185.596 175.492 185.596 174.86C185.596 174.227 186.116 173.707 186.749 173.707C187.382 173.707 187.902 174.227 187.902 174.86Z" fill="#FAFAF7"/>
<path fill-rule="evenodd" clip-rule="evenodd" d="M315.43 74.7042C315.43 75.3371 314.91 75.8569 314.277 75.8569C313.644 75.8569 313.124 75.3371 313.124 74.7042C313.124 74.0713 313.644 73.5514 314.277 73.5514C314.91 73.5514 315.43 74.0713 315.43 74.7042Z" fill="#FAFAF7"/>
<path fill-rule="evenodd" clip-rule="evenodd" d="M374.493 159.783C374.493 160.416 373.973 160.936 373.34 160.936C372.707 160.936 372.188 160.416 372.188 159.783C372.188 159.15 372.707 158.63 373.34 158.63C373.973 158.63 374.493 159.15 374.493 159.783Z" fill="#FAFAF7"/>
<path fill-rule="evenodd" clip-rule="evenodd" d="M278.474 206.21C278.474 206.843 277.954 207.363 277.321 207.363C276.688 207.363 276.168 206.843 276.168 206.21C276.168 205.578 276.688 205.058 277.321 205.058C277.954 205.058 278.474 205.578 278.474 206.21Z" fill="#FAFAF7"/>
<path fill-rule="evenodd" clip-rule="evenodd" d="M118.758 85.3051C118.758 85.938 118.238 86.4578 117.605 86.4578C116.973 86.4578 116.453 85.938 116.453 85.3051C116.453 84.6722 116.973 84.1523 117.605 84.1523C118.238 84.1523 118.758 84.6722 118.758 85.3051Z" fill="#FAFAF7"/>
<path fill-rule="evenodd" clip-rule="evenodd" d="M16.9979 39.262C16.9979 39.8949 16.4781 40.4147 15.8452 40.4147C15.2123 40.4147 14.6924 39.8949 14.6924 39.262C14.6924 38.6291 15.2123 38.1092 15.8452 38.1092C16.4781 38.1092 16.9979 38.6291 16.9979 39.262Z" fill="#FAFAF7"/>
<path fill-rule="evenodd" clip-rule="evenodd" d="M345.989 204.47C345.989 205.103 345.469 205.623 344.836 205.623C344.203 205.623 343.684 205.103 343.684 204.47C343.684 203.837 344.203 203.317 344.836 203.317C345.469 203.317 345.989 203.837 345.989 204.47Z" fill="#FAFAF7"/>
<path fill-rule="evenodd" clip-rule="evenodd" d="M426.097 129.427C426.097 130.06 425.577 130.58 424.944 130.58C424.311 130.58 423.791 130.06 423.791 129.427C423.791 128.794 424.311 128.274 424.944 128.274C425.577 128.274 426.097 128.794 426.097 129.427Z" fill="#FAFAF7"/>
<path fill-rule="evenodd" clip-rule="evenodd" d="M334.191 101.918C334.191 102.551 333.671 103.071 333.038 103.071C332.405 103.071 331.885 102.551 331.885 101.918C331.885 101.286 332.405 100.766 333.038 100.766C333.671 100.766 334.191 101.286 334.191 101.918Z" fill="#FAFAF7"/>
<path fill-rule="evenodd" clip-rule="evenodd" d="M371.012 115.842C371.012 116.475 370.492 116.995 369.859 116.995C369.226 116.995 368.707 116.475 368.707 115.842C368.707 115.209 369.226 114.689 369.859 114.689C370.492 114.689 371.012 115.209 371.012 115.842Z" fill="#FAFAF7"/>
<path fill-rule="evenodd" clip-rule="evenodd" d="M399.357 72.3308C399.357 72.9636 398.837 73.4835 398.204 73.4835C397.571 73.4835 397.051 72.9636 397.051 72.3308C397.051 71.6979 397.571 71.178 398.204 71.178C398.837 71.178 399.357 71.6979 399.357 72.3308Z" fill="#FAFAF7"/>
<path fill-rule="evenodd" clip-rule="evenodd" d="M377.318 35.4871C377.318 36.12 376.798 36.6399 376.165 36.6399C375.533 36.6399 375.013 36.12 375.013 35.4871C375.013 34.8542 375.533 34.3344 376.165 34.3344C376.798 34.3344 377.318 34.8542 377.318 35.4871Z" fill="#FAFAF7"/>
<path fill-rule="evenodd" clip-rule="evenodd" d="M500.777 48.9137C500.777 49.5466 500.257 50.0665 499.624 50.0665C498.992 50.0665 498.472 49.5466 498.472 48.9137C498.472 48.2808 498.992 47.7609 499.624 47.7609C500.257 47.7609 500.777 48.2808 500.777 48.9137Z" fill="#FAFAF7"/>
<path d="M399.515 66.0243C400.152 66.0243 400.668 65.5082 400.668 64.8715C400.668 64.2349 400.152 63.7188 399.515 63.7188C398.878 63.7188 398.362 64.2349 398.362 64.8715C398.362 65.5082 398.878 66.0243 399.515 66.0243Z" fill="#FAFAF7"/>
<path fill-rule="evenodd" clip-rule="evenodd" d="M292.397 50.1793C292.397 50.8122 291.877 51.3321 291.244 51.3321C290.611 51.3321 290.091 50.8122 290.091 50.1793C290.091 49.5464 290.611 49.0266 291.244 49.0266C291.877 49.0266 292.397 49.5464 292.397 50.1793Z" fill="#FAFAF7"/>
<path fill-rule="evenodd" clip-rule="evenodd" d="M391.558 192.129C391.558 193.394 390.541 194.434 389.252 194.434C387.964 194.434 386.947 193.417 386.947 192.129C386.947 190.84 387.964 189.823 389.252 189.823C390.541 189.823 391.558 190.84 391.558 192.129Z" fill="#FAFAF7"/>
<path fill-rule="evenodd" clip-rule="evenodd" d="M480.57 190.253C480.57 191.518 479.553 192.558 478.265 192.558C476.976 192.558 475.959 191.541 475.959 190.253C475.959 188.964 476.976 187.947 478.265 187.947C479.553 187.947 480.57 188.964 480.57 190.253Z" fill="#FAFAF7"/>
<path fill-rule="evenodd" clip-rule="evenodd" d="M222.462 220.812C222.462 222.078 221.445 223.118 220.157 223.118C218.868 223.118 217.851 222.101 217.851 220.812C217.851 219.524 218.868 218.507 220.157 218.507C221.445 218.507 222.462 219.524 222.462 220.812Z" fill="#FAFAF7"/>
<path fill-rule="evenodd" clip-rule="evenodd" d="M126.037 72.3307C126.037 73.5965 125.02 74.6362 123.731 74.6362C122.443 74.6362 121.426 73.6191 121.426 72.3307C121.426 71.0423 122.443 70.0251 123.731 70.0251C125.02 70.0251 126.037 71.0423 126.037 72.3307Z" fill="#FAFAF7"/>
<path fill-rule="evenodd" clip-rule="evenodd" d="M145.091 108.044C145.091 109.31 144.073 110.35 142.785 110.35C141.497 110.35 140.479 109.333 140.479 108.044C140.479 106.756 141.497 105.739 142.785 105.739C144.073 105.739 145.091 106.756 145.091 108.044Z" fill="#FAFAF7"/>
<path fill-rule="evenodd" clip-rule="evenodd" d="M113.582 15.212C113.582 16.4778 112.565 17.5175 111.276 17.5175C109.988 17.5175 108.971 16.5004 108.971 15.212C108.971 13.9236 109.988 12.9064 111.276 12.9064C112.565 12.9064 113.582 13.9236 113.582 15.212Z" fill="#FAFAF7"/>
<path fill-rule="evenodd" clip-rule="evenodd" d="M278.428 88.6276C278.428 89.8934 277.411 90.9332 276.123 90.9332C274.835 90.9332 273.817 89.916 273.817 88.6276C273.817 87.3392 274.835 86.3221 276.123 86.3221C277.411 86.3221 278.428 87.3392 278.428 88.6276Z" fill="#FAFAF7"/>
<path fill-rule="evenodd" clip-rule="evenodd" d="M472.433 15.212C472.433 16.4778 471.416 17.5175 470.128 17.5175C468.839 17.5175 467.822 16.5004 467.822 15.212C467.822 13.9236 468.839 12.9064 470.128 12.9064C471.416 12.9064 472.433 13.9236 472.433 15.212Z" fill="#FAFAF7"/>
<path fill-rule="evenodd" clip-rule="evenodd" d="M409.777 130.421C409.777 131.687 408.759 132.727 407.471 132.727C406.183 132.727 405.166 131.71 405.166 130.421C405.166 129.133 406.183 128.116 407.471 128.116C408.759 128.116 409.777 129.133 409.777 130.421Z" fill="#FAFAF7"/>
<path fill-rule="evenodd" clip-rule="evenodd" d="M252.75 21.9703C252.75 23.2361 251.733 24.2759 250.445 24.2759C249.156 24.2759 248.139 23.2587 248.139 21.9703C248.139 20.6819 249.156 19.6648 250.445 19.6648C251.733 19.6648 252.75 20.6819 252.75 21.9703Z" fill="#FAFAF7"/>
<path fill-rule="evenodd" clip-rule="evenodd" d="M283.107 187.834C283.107 189.1 282.09 190.14 280.802 190.14C279.513 190.14 278.496 189.122 278.496 187.834C278.496 186.546 279.513 185.528 280.802 185.528C282.09 185.528 283.107 186.546 283.107 187.834Z" fill="#FAFAF7"/>
</svg>
