<svg width="33" height="33" viewBox="0 0 33 33" fill="none" xmlns="http://www.w3.org/2000/svg">
<path d="M15.1801 31.4747V27.2889L12.9645 28.6037L11.8801 27.9212V26.4501L15.1801 24.4793V21.7284L12.5401 23.3461V20.4315L9.90014 21.8136V25.767L8.80916 26.5788L7.92014 25.8455V23.1976L4.2413 25.2581L2.64014 24.5988V22.9296L6.39224 20.8374L3.96014 19.6349V18.1037L5.36132 17.3599L8.80256 19.3848L11.1865 18.0093L11.1324 17.9664L8.71346 16.5653L11.0683 15.0948L8.70752 13.72L5.26694 15.7343L3.96014 15.0948V13.5722L6.29786 12.2667L2.64014 10.2517V8.58255L4.172 7.84731L7.92014 9.95733V7.26717L8.90024 6.52335L10.1826 7.30215L10.1457 11.3315L12.5698 12.732L12.5916 9.88671L15.1801 11.2721V8.52183L11.8801 6.54975V5.08851L12.9645 4.39551L15.1801 5.71023V1.53375L16.4962 0.659912L17.8201 1.53375V5.71023L20.3981 4.36977L21.7801 5.17431V6.48903L17.8201 8.52183V11.2721L20.4601 9.77583V12.7683L23.1001 11.3928V7.08699L24.0604 6.51543L25.0801 7.08633V9.83655L28.9359 7.80375L30.3601 8.60763V10.1646L26.7334 12.2568L29.0401 13.5464V15.0341L27.8323 15.6914L24.3165 13.6071L21.8884 15.1555L24.2307 16.626L21.8158 18.0265L24.3053 19.3412L27.862 17.3705L29.0401 18.173V19.592L26.8489 20.8374L30.3601 22.9296V24.573L28.6956 25.2575L25.0801 23.2854V25.8957L24.0769 26.588L23.1001 25.8957V21.9344L20.4601 20.4738V23.2247L17.8201 21.7278V24.4787L21.1201 26.4494V28.0064L20.0331 28.603L17.8201 27.2896V31.4753L16.4962 32.3399L15.1801 31.4747ZM14.2126 16.5606L15.4573 18.4799H17.7766L18.8412 16.5606L17.7165 14.5199H15.3973L14.2126 16.5606Z" fill="white"/>
</svg>
