<?xml version="1.0" encoding="UTF-8"?><svg id="Calque_2" xmlns="http://www.w3.org/2000/svg" viewBox="0 0 581 1975.38"><defs><style>.cls-1{fill:#fffae9;}.cls-2{fill:#fff9e6;}.cls-3{fill:#f2b285;}.cls-4{fill:#b01014;}.cls-5{fill:#c7373b;}.cls-6{fill:#dc4135;}.cls-7{fill:#252525;}.cls-8{fill:#5e2221;}</style></defs><g id="OBJECTS"><path class="cls-8" d="m405.68,1153.93l4.36-6.19,1.36-9.89-9.32-3.31-78.15,65.38-.62,16.16s3.02,4.43,18.2-9.69c15.18-14.13,64.18-52.45,64.18-52.45Z"/><path class="cls-8" d="m532.93,1100.57l6.03-4.57,4.3-9.01-7.87-5.99-94.36,38.46-.53,12.71s1.53,5.14,20.29-3.69c18.76-8.83,72.13-27.92,72.13-27.92Z"/><path class="cls-4" d="m17.11,1657.41c-2.72-10.87-7.28-19-12.55-25.09-2.29,10.99-3.74,22.26-4.2,33.82-.64,16.33-.41,31.56.51,45.76,13.14-10.81,22.75-28.4,16.23-54.49Z"/><path class="cls-2" d="m554.54,1382.87c11.31-22.62,19.68-47.76,23.87-75.69,4.41-29.45,2.88-58.67-2.21-86.69-16.35,16.11-66.45,75.48-21.65,162.38Z"/><path class="cls-4" d="m293.54,1725.46c-7.88,31.52,7.79,50.64,24.79,60.38,9.09-22.22,15.53-46.91,15.78-72.59.09-9.56-.54-19.44-1.65-29.34-12.09,3.34-31.8,13.09-38.92,41.55Z"/><path class="cls-5" d="m576.2,1220.49c-9.81-54.04-32.87-103.54-52.21-141.39-29.87,6.08-57.35,22.07-74.69,34,16.04,46.34,29.82,104.12,16.04,142.57,0,0-16.96-67.79-80.66-125.25-30.43,20.93-50,48.15-60.65,66.23,21.1,30.19,39.94,63.02,37.34,84.9-5.17,43.51-70.84,71.31-105.79,91.23,0,0-217.41,98.48-251.02,259.53,5.27,6.1,9.83,14.22,12.55,25.09,6.52,26.09-3.09,43.68-16.23,54.49,9.21,140.86,88.11,180.28,88.11,180.28l32.53-93.67s-63.94-99.84-5.05-200.81c58.9-100.96,102.44-25.41,107.13,43.19,4.49,65.63-15.14,130.69-43.75,164.35l75.72,76.84s39.82-40.21,62.75-96.24c-16.99-9.74-32.67-28.86-24.79-60.38,7.11-28.46,26.83-38.21,38.92-41.55-6.6-58.68-30.84-118.18-30.84-118.18,0,0,182.89-42.76,252.93-182.87-44.79-86.9,5.3-146.27,21.65-162.38Z"/><path class="cls-7" d="m430.93,1065.75s.19.27.48.84c.31.63.72,1.47,1.24,2.53,1.06,2.24,2.59,5.57,4.46,9.89,3.73,8.65,8.89,21.29,14.37,37.23,5.44,15.95,11.29,35.21,15.49,57.14,2.08,10.96,3.72,22.59,4.39,34.73.61,12.12.25,24.85-2.37,37.52-5.11,25.33-15.01,48.21-26.57,67.29-11.57,19.13-24.65,34.58-36.51,46.55-11.89,11.98-22.58,20.55-30.18,26.12-3.8,2.79-6.85,4.82-8.94,6.15-1.02.62-1.81,1.11-2.41,1.47-.56.31-.85.46-.86.44-.01-.02.25-.22.77-.57.57-.4,1.34-.92,2.32-1.6,2.03-1.42,5.02-3.52,8.75-6.38,7.47-5.71,18.01-14.38,29.75-26.41,11.71-12.02,24.64-27.47,36.07-46.52,11.42-19,21.2-41.72,26.27-66.85,2.58-12.51,2.95-25.09,2.37-37.13-.65-12.06-2.25-23.63-4.28-34.55-4.11-21.85-9.83-41.1-15.12-57.05-5.33-15.96-10.33-28.64-13.88-37.35-1.8-4.29-3.2-7.65-4.19-10-.46-1.09-.83-1.95-1.1-2.6-.24-.59-.36-.89-.33-.9Z"/><path class="cls-2" d="m270.74,1358.08s37.02-.85,98.5,44.48c59.58,43.93,66.24,105.86,64.82,121.37-.61,6.59-22.47,17.38-29.06,5.99,0,0,4.38-66.48-58.46-116.76-47.04-37.63-95.36-40.66-95.36-40.66,0,0-6.36-8.82,19.58-14.43Z"/><path class="cls-2" d="m167.37,1937.44c0-7.96,6.28-14.43,14.16-14.78-5.28-25.05-12.09-57.31-17.54-82.83-2.39,4.98-7.46,8.42-13.34,8.42-8.18,0-14.81-6.63-14.81-14.81s6.63-14.81,14.81-14.81c3.64,0,6.97,1.32,9.55,3.5-2.18-10.11-3.89-17.9-4.81-21.88-1.91-8.2-6.26-12.07-11.7-13.89.17.79.27,1.61.27,2.46,0,6.33-5.13,11.46-11.46,11.46s-11.46-5.13-11.46-11.46c0-1.45.28-2.83.77-4.1-.9-.03-1.79-.07-2.67-.13-42.97-3.13-47,1.34-47.45,12.09-.02.4-.05.93-.08,1.57,2.63-2.41,6.13-3.9,9.99-3.9,8.18,0,14.81,6.63,14.81,14.81s-6.63,14.81-14.81,14.81c-4.61,0-8.73-2.11-11.45-5.41-2.37,31.06-6.87,86.36-9.43,118.02,2.7-2.83,6.49-4.6,10.71-4.6,8.18,0,14.81,6.63,14.81,14.81s-6.63,14.81-14.81,14.81c-3.93,0-7.49-1.54-10.14-4.04,7.99,23.97,49.06,16.83,77.54,16.83,32.68,0,54.34,3.28,49.75-18.35-.3-1.4-.64-3.02-1.02-4.8-1.67.65-3.48,1.02-5.38,1.02-8.18,0-14.81-6.63-14.81-14.81Zm-83.26-41.42c-7.73,0-13.99-6.26-13.99-13.99s6.26-13.99,13.99-13.99,13.99,6.27,13.99,13.99-6.26,13.99-13.99,13.99Zm10.03-55.86c0-6.33,5.13-11.46,11.46-11.46s11.46,5.13,11.46,11.46-5.13,11.46-11.46,11.46-11.46-5.13-11.46-11.46Zm30.4,132.9c-6.33,0-11.46-5.13-11.46-11.46s5.13-11.46,11.46-11.46,11.46,5.13,11.46,11.46-5.13,11.46-11.46,11.46Zm11.29-43.77c-8.18,0-14.81-6.63-14.81-14.81s6.63-14.81,14.81-14.81,14.81,6.63,14.81,14.81-6.63,14.81-14.81,14.81Z"/><path class="cls-6" d="m135.83,1833.44c0,8.18,6.63,14.81,14.81,14.81,5.89,0,10.96-3.44,13.34-8.42-1.37-6.4-2.64-12.37-3.79-17.7-2.58-2.18-5.91-3.5-9.55-3.5-8.18,0-14.81,6.63-14.81,14.81Z"/><path class="cls-6" d="m81.58,1823.97c8.18,0,14.81-6.63,14.81-14.81s-6.63-14.81-14.81-14.81c-3.85,0-7.35,1.48-9.99,3.9-.21,3.59-.73,10.81-1.46,20.31,2.72,3.3,6.83,5.41,11.45,5.41Z"/><path class="cls-6" d="m135.83,1899.67c-8.18,0-14.81,6.63-14.81,14.81s6.63,14.81,14.81,14.81,14.81-6.63,14.81-14.81-6.63-14.81-14.81-14.81Z"/><path class="cls-6" d="m167.37,1937.44c0,8.18,6.63,14.81,14.81,14.81,1.9,0,3.71-.37,5.38-1.02-1.5-7.11-3.61-17.07-6.03-28.57-7.87.34-14.16,6.82-14.16,14.78Z"/><path class="cls-6" d="m86.23,1946.78c0-8.18-6.63-14.81-14.81-14.81-4.22,0-8.02,1.77-10.71,4.6-.24,2.98-.46,5.75-.67,8.26-.4,5,.06,9.19,1.24,12.72,2.65,2.5,6.21,4.04,10.14,4.04,8.18,0,14.81-6.63,14.81-14.81Z"/><path class="cls-6" d="m124.54,1950.13c-6.33,0-11.46,5.13-11.46,11.46s5.13,11.46,11.46,11.46,11.46-5.13,11.46-11.46-5.13-11.46-11.46-11.46Z"/><circle class="cls-6" cx="105.61" cy="1840.16" r="11.46" transform="translate(-294.44 40.91) rotate(-9.25)"/><path class="cls-6" d="m132.49,1800.28c6.33,0,11.46-5.13,11.46-11.46,0-.84-.1-1.66-.27-2.46-6.52-2.18-14.59-1.43-21.89-1.65-.49,1.28-.77,2.65-.77,4.1,0,6.33,5.13,11.46,11.46,11.46Z"/><path class="cls-6" d="m84.11,1868.03c-7.73,0-13.99,6.27-13.99,13.99s6.26,13.99,13.99,13.99,13.99-6.26,13.99-13.99-6.26-13.99-13.99-13.99Z"/><path class="cls-1" d="m111.79,1787.63c.16-.14,2.27-2.13,5.43-4.78,3.5-3.02,8.7-7.24,14.46-13.12,2.83-2.98,5.91-6.26,8.85-10.07,2.98-3.77,5.91-8,8.43-12.74,2.52-4.72,4.72-9.96,5.76-15.58.51-2.8.79-5.71.44-8.52-.31-2.8-1.37-5.53-3.2-7.13-.95-.72-2.05-1.07-3.23-1.09-1.19.04-2.44.43-3.62,1.07-2.39,1.27-4.42,3.33-6.24,5.56-1.81,2.3-3.65,4.5-5.16,6.89-1.64,2.29-3.02,4.69-4.37,7.03-5.37,9.39-8.68,18.68-11.16,26.51-4.8,15.78-5.83,26.05-6.37,25.98-.24-.02-.29-2.61.22-7.26.51-4.64,1.57-11.33,3.73-19.42,2.2-8.05,5.33-17.63,10.7-27.41,1.36-2.44,2.74-4.93,4.42-7.34,1.53-2.49,3.43-4.82,5.3-7.23,1.93-2.38,4.2-4.8,7.27-6.46,1.52-.82,3.29-1.44,5.23-1.5,1.94-.02,3.96.64,5.53,1.87,2.99,2.62,4.1,6.23,4.49,9.49.39,3.32.05,6.54-.53,9.59-1.18,6.13-3.59,11.62-6.31,16.51-2.72,4.91-5.84,9.23-9.01,13.02-3.12,3.84-6.38,7.1-9.38,10.02-6.09,5.76-11.6,9.72-15.39,12.43-4.37,2.79-6.42,3.81-6.26,3.66Z"/><path class="cls-1" d="m111.79,1787.63c.14.15-1.7-.93-5.86-3.51-2.14-1.37-4.21-2.95-6.83-4.84-2.6-1.86-5.43-4.16-8.6-6.65-6.24-5.1-13.53-11.41-20.68-19.45-3.55-4.03-7.11-8.47-10.03-13.71-1.45-2.61-2.76-5.44-3.38-8.69-.19-.79-.19-1.68-.29-2.51.06-.89.02-1.77.29-2.69.32-1.83,1.63-3.74,3.4-4.72,1.75-.98,3.71-1.28,5.42-1.1,1.75.1,3.35.57,4.88,1.11,3.03,1.16,5.67,2.85,8.01,4.75,2.34,1.89,4.47,4.01,6.26,6.17,1.84,2.14,3.61,4.25,5.18,6.43,6.49,8.59,11.06,17.17,14.39,24.53,3.34,7.38,5.37,13.61,6.55,17.97,1.18,4.36,1.51,6.85,1.27,6.91-.52.15-3-9.52-10.1-23.79-3.57-7.1-8.27-15.37-14.73-23.61-1.57-2.09-3.32-4.12-5.13-6.18-1.77-2.1-3.71-3.96-5.87-5.68-2.14-1.72-4.53-3.21-7.09-4.17-2.49-.94-5.42-1.33-7.25-.26-1.82.94-2.24,3.59-1.71,6.2.48,2.63,1.63,5.23,2.96,7.66,2.66,4.89,6.05,9.24,9.43,13.22,6.83,7.95,13.85,14.39,19.82,19.68,3.03,2.6,5.73,5.01,8.2,7.01,2.36,1.98,4.41,3.69,6.13,5.13,2.81,2.53,4.28,3.85,5.33,4.8Z"/><path class="cls-8" d="m339.98,1065.89c-.31-.94-.73-1.69-1.33-2.09-4.22-2.82-70.82,45.67-67.18,60.2.09.35.24.77.43,1.22,4.18-6.51,21.7-30.49,68.08-59.33Z"/><path class="cls-4" d="m384.67,1130.43c-.36-.32-.7-.65-1.06-.98-49.9-44.54-44.04-47.67-44.04-47.67,0,0,2.04-10.9.41-15.88-46.38,28.84-63.9,52.82-68.08,59.33,3.96,9.34,29.36,38.85,52.13,71.43,10.65-18.08,30.22-45.3,60.65-66.23Z"/><path class="cls-7" d="m341.95,1087.63c.01-.1,1.74-.02,4.86.38,3.11.41,7.64,1.07,13.13,2.56,2.73.79,5.76,1.7,8.69,3.6.72.49,1.43,1.08,2.03,1.84.62.78.97,1.76,1,2.83.04.54-.2,1.23-.69,1.71-.52.4-1.1.59-1.62.64-1.06.13-2.03-.02-2.99-.21-3.82-.82-7.48-2.41-11.26-4.1-3.77-1.73-7.59-3.67-11.46-5.81l1.15-.81c.32,1.93.57,3.89.74,5.88.4,4.77.31,9.47-.27,13.96-.67,4.46-1.48,8.85-4.02,12.51-.68.84-1.6,1.82-3.03,1.85-1.44-.03-2.35-1.01-2.94-1.84-1.27-1.89-1.32-3.95-1.43-5.81,0-3.76.75-7.13,1.45-10.17,1.47-6.07,3.24-10.8,4.47-14.05.63-1.62,1.16-2.87,1.53-3.7.36-.81.63-1.29.66-1.24.1.04-.54,1.85-1.62,5.14-1.05,3.3-2.65,8.06-3.97,14.09-.63,3-1.29,6.35-1.23,9.9.11,1.73.27,3.63,1.24,5.01.49.71,1.2,1.28,1.83,1.24.64.02,1.35-.59,1.9-1.31,2.17-3.15,3.05-7.52,3.64-11.82.55-4.37.62-8.97.23-13.63-.17-1.94-.41-3.86-.72-5.75-.07-.43.22-.83.64-.9.18-.03.36,0,.51.09,3.81,2.12,7.61,4.07,11.32,5.8,3.71,1.69,7.36,3.3,10.91,4.1,1.66.39,3.89.49,3.69-.78.03-1.51-1.12-2.71-2.41-3.62-2.64-1.79-5.62-2.77-8.27-3.61-5.37-1.61-9.85-2.42-12.92-3.01-3.08-.57-4.78-.84-4.77-.95Z"/><path class="cls-7" d="m368.39,1105.69c.26.34-3.72,3.86-8.91,7.86-5.18,4-9.6,6.97-9.86,6.62s3.73-3.86,8.91-7.86c5.18-4,9.6-6.97,9.86-6.62Z"/><path class="cls-7" d="m373.97,1112.93c.26.34-3.72,3.86-8.91,7.86-5.18,4-9.6,6.97-9.86,6.62-.26-.34,3.72-3.86,8.91-7.86,5.18-4,9.6-6.97,9.86-6.62Z"/><path class="cls-2" d="m407.2,1153.15c4.8-8.11,5.56-13.2,4.98-15.31-3.03-11.08-23.17-15.44-26.99-13.91-17.43,6.95-59.05,44.09-68.26,59.72-9.2,15.62,6.36,32.44,6.36,32.44,0,0-2.46-14.76,55.51-60.43,37.87-29.83,34.36-16.49,27.37-3.65l1.02,1.15Z"/><path class="cls-2" d="m236.89,1912.33c7.2.61,25.47-7.67,25.78-28.23.31-20.56-45.73-87.16-83.17-85.32-8.65,1.6-21.48,21.18-18.72,31.61,2.76,10.43,50.64,79.79,76.11,81.94Z"/><path class="cls-4" d="m180.12,1834.38s28.54,16.27,50.33,62.91c0,0-79.85,42.07-103.42,15.07-12.89-14.76,42.96-54.35,42.96-54.35,0,0-24.86,0-23.63-4.91,1.23-4.91,33.76-18.72,33.76-18.72Z"/><path class="cls-7" d="m312.78,1567.6c-.05,0-.19-.8-.39-2.34-.2-1.64-.47-3.89-.82-6.74-.17-1.47-.36-3.1-.56-4.87-.3-1.77-.63-3.69-.98-5.75-.35-2.07-.72-4.27-1.11-6.6-.53-2.31-1.09-4.75-1.67-7.31-1.03-5.16-2.86-10.63-4.61-16.55-1.08-2.9-2.19-5.89-3.33-8.97-1.19-3.07-2.7-6.1-4.09-9.28-1.42-3.16-3.26-6.22-4.93-9.44-1.79-3.15-3.86-6.24-5.86-9.44-4.4-6.12-9.11-12.38-14.81-18.01-2.69-2.96-5.76-5.48-8.6-8.14-3.06-2.4-5.94-4.97-9.08-7.06-6.07-4.49-12.43-8.08-18.57-11.3-6.18-3.17-12.3-5.65-18.09-7.8-5.84-2-11.34-3.73-16.46-4.93-10.2-2.56-18.68-3.63-24.52-4.26-2.93-.27-5.21-.45-6.76-.53-1.55-.1-2.36-.13-2.36-.19,0-.05.82-.13,2.37-.13,1.56-.02,3.85.06,6.8.24,5.89.44,14.43,1.35,24.73,3.79,5.17,1.14,10.72,2.82,16.63,4.79,5.85,2.11,12.05,4.57,18.31,7.73,6.22,3.21,12.66,6.81,18.82,11.34,3.18,2.11,6.1,4.69,9.2,7.12,2.88,2.68,5.98,5.23,8.71,8.23,5.77,5.7,10.53,12.04,14.96,18.24,2.01,3.24,4.09,6.36,5.89,9.56,1.67,3.26,3.51,6.36,4.93,9.56,1.38,3.22,2.89,6.29,4.06,9.39,1.13,3.12,2.23,6.14,3.29,9.07,1.71,5.98,3.49,11.51,4.46,16.71.55,2.58,1.07,5.04,1.57,7.38.35,2.35.69,4.57,1,6.65.31,2.07.59,4,.86,5.79.16,1.78.3,3.42.43,4.9.22,2.86.4,5.12.53,6.78.1,1.55.13,2.36.08,2.37Z"/><path class="cls-7" d="m334.11,1560.5c-.05,0-.27-.81-.64-2.38-.37-1.67-.89-3.96-1.54-6.86-.34-1.49-.66-3.15-1.1-4.96-.5-1.8-1.03-3.74-1.61-5.82-.58-2.09-1.19-4.32-1.84-6.69-.79-2.33-1.63-4.78-2.51-7.36-3.6-10.25-8.58-22.33-16.22-34.53-7.48-12.27-17.74-24.55-30.45-35.2-1.54-1.39-3.18-2.64-4.83-3.85-1.65-1.22-3.24-2.48-4.9-3.63-3.38-2.21-6.63-4.51-10.07-6.39-6.71-4.02-13.58-7.19-20.23-9.92-6.65-2.76-13.2-4.74-19.35-6.5-6.2-1.59-12.02-2.92-17.4-3.78-10.74-1.84-19.58-2.34-25.66-2.56-3.05-.07-5.42-.09-7.02-.07-1.61,0-2.45.03-2.46-.02,0-.05.83-.18,2.44-.29,1.61-.13,3.98-.21,7.04-.23,6.11.04,15,.37,25.83,2.08,5.42.8,11.3,2.06,17.55,3.62,6.21,1.72,12.83,3.67,19.55,6.42,6.72,2.71,13.67,5.89,20.46,9.93,3.47,1.89,6.77,4.21,10.19,6.43,1.68,1.16,3.29,2.44,4.95,3.67,1.67,1.22,3.32,2.49,4.88,3.89,12.85,10.77,23.19,23.22,30.68,35.64,7.65,12.36,12.55,24.57,16.04,34.93.85,2.6,1.65,5.08,2.42,7.43.61,2.38,1.19,4.64,1.74,6.75.53,2.1,1.03,4.06,1.49,5.87.4,1.82.68,3.5.97,5,.53,2.93.95,5.25,1.25,6.93.27,1.59.38,2.42.33,2.43Z"/><path class="cls-7" d="m216.21,1425.09c1.1-.86,2.67-2.08,5.69-4.43,3.55-2.7,8.9-6.8,15.11-12.11,6.21-5.33,13.39-12.02,20.13-20.45,3.27-4.26,6.53-8.97,8.65-14.37,1.09-2.68,1.79-5.57,1.79-8.47.03-1.46-.3-2.87-.78-4.21-.62-1.27-1.45-2.44-2.63-3.24-2.38-1.56-5.53-1.7-8.28-.85-2.79.81-5.32,2.38-7.48,4.25-2.21,1.83-3.89,4.18-5.62,6.42-1.73,2.23-3.23,4.56-4.71,6.81-5.74,9.16-9.87,18.04-12.98,25.62-3.11,7.59-5.25,13.88-6.68,18.24-.67,2.09-1.2,3.77-1.61,5.04-.35,1.2-.59,1.68-.62,1.74-.04.06.04-.69.32-1.83.27-1.18.71-2.92,1.33-5.13,1.25-4.43,3.24-10.8,6.23-18.48,2.99-7.67,7.05-16.66,12.78-25.98,1.48-2.3,2.99-4.66,4.74-6.94,1.73-2.26,3.45-4.69,5.8-6.67,2.28-2,4.98-3.7,8.06-4.6,3.02-.93,6.67-.86,9.59,1.05,1.44.98,2.47,2.4,3.19,3.92.58,1.56.93,3.2.9,4.8,0,3.21-.78,6.27-1.92,9.06-2.24,5.62-5.59,10.39-8.95,14.7-6.91,8.51-14.21,15.15-20.55,20.4-6.38,5.26-11.69,9.14-15.58,11.83-1.87,1.22-3.36,2.2-4.49,2.94-.99.65-1.47.97-1.44.93Z"/><path class="cls-7" d="m216.21,1424.6s-.38-.13-1.25-.44c-1.05-.37-2.37-.84-3.99-1.41-1.83-.65-3.91-1.51-6.29-2.5-2.41-.97-5.12-2.15-8.1-3.49-5.95-2.7-12.99-6.05-20.44-10.5-3.7-2.26-7.54-4.75-11.11-7.93-1.81-1.55-3.5-3.37-4.84-5.55-.71-1.06-1.15-2.38-1.31-3.78-.08-1.46.63-2.98,1.75-3.88,1.1-.94,2.41-1.41,3.68-1.68,1.28-.31,2.56-.35,3.82-.35,2.52.05,4.96.53,7.25,1.3,2.29.77,4.44,1.87,6.33,3.18,1.89,1.28,3.67,2.63,5.35,4.01,6.69,5.55,12.03,11.27,16.32,16.21,4.28,4.95,7.52,9.14,9.68,12.08,1.08,1.47,1.89,2.64,2.42,3.44.52.75.79,1.33.74,1.28-.05-.05-.37-.3-.99-1.09-.69-.85-1.57-1.93-2.65-3.26-2.31-2.82-5.66-6.89-10.03-11.72-4.37-4.81-9.76-10.41-16.4-15.82-3.36-2.65-6.93-5.46-11.26-6.86-2.16-.72-4.46-1.16-6.79-1.2-2.26,0-4.81.28-6.45,1.67-.81.67-1.23,1.6-1.2,2.62.14,1.03.44,2.1,1.09,3.06,1.19,1.94,2.78,3.69,4.52,5.19,3.44,3.08,7.21,5.57,10.84,7.84,7.32,4.48,14.29,7.91,20.15,10.73,5.83,2.79,10.82,4.95,13.93,6.38,2.62,1.23,4.07,1.91,5.24,2.46Z"/><path class="cls-7" d="m216.21,0c.43,0,.78,318.91.78,712.3s-.35,712.3-.78,712.3-.78-318.91-.78-712.3S215.78,0,216.21,0Z"/><path class="cls-7" d="m182.78,1457.89c-.08-.18,2.25.05,4.7-2.68,2.48-2.59,4.87-7.3,7.93-13.04,1.56-2.86,3.3-6,5.64-9.11,2.31-3.07,5.37-6.25,9.65-7.82,4.19-1.59,9.58-1.01,13.43,2.17,3.8,3.19,6.06,7.82,7.72,12.54,3.21,9.58,3.84,19.21,3.87,27.83,0,4.31-.38,8.46-.6,12.22-.27,3.77-.05,7.31.46,10.47.99,6.36,3.55,11.07,5.83,13.81,2.29,2.79,4.09,3.77,4.02,3.87-.02.05-.5-.14-1.32-.67-.81-.54-1.93-1.44-3.17-2.8-2.49-2.69-5.3-7.5-6.46-14.02-.6-3.24-.89-6.86-.67-10.72.17-3.87.5-7.87.45-12.16-.1-8.51-.79-18.03-3.91-27.32-1.6-4.57-3.79-8.97-7.21-11.86-3.43-2.83-8.13-3.38-11.98-1.99-3.88,1.37-6.82,4.31-9.11,7.25-2.3,2.98-4.09,6.05-5.7,8.86-3.18,5.64-5.74,10.35-8.47,12.93-1.33,1.3-2.68,1.99-3.65,2.18-.96.22-1.48.07-1.48.07Z"/><path class="cls-2" d="m136.06,1554.84l-26.31,8.68c2.04,5.87-7.41,35.02,7.15,50.6,20.6,22.05,52.7,13.37,62.58,6.1,13.54-9.96,30.14-32.95,20.94-71.77-2.67-11.26-5.37-20.64-7.87-28.36-12.98,53.85-56.49,34.74-56.49,34.74Z"/><path class="cls-3" d="m91.62,1523.17c4.34,26.82,18.13,40.35,18.13,40.35l26.31-8.68s43.51,19.11,56.49-34.74c-6.13-18.9-11.03-27.58-11.03-27.58,0,0-94.25,3.83-89.9,30.65Z"/><path class="cls-2" d="m90.42,1483.79s-12.97,9.18-12.9,17.11c.07,7.93,3.2,25.46,32.14,27.12,28.95,1.66,70.93-24.95,75.62-35.5,4.69-10.56-2.93-32.72-16.72-30.11-13.79,2.61-78.15,21.38-78.15,21.38Z"/><path class="cls-4" d="m86.67,1502.74c.71-3.92,1.7-11.4.68-18.81-.88-6.37-3.25-12.68-8.57-16.63-11.33-8.39-25.01-3.95-31.18,7.03-5.35,9.52-3.45,21.96-3.45,21.96l-6.29,8.13c-3.85-14.02-5.33-28.93-2.1-43.41,11.84-53.04,69.55-64.64,98.93-42.68,22.48,16.8,34.98,43.01,39.71,54.71,0,0-4.89,19.48-47.43,29.21-28.25,6.76-40.3.48-40.3.48Z"/><circle class="cls-2" cx="45.22" cy="1510.73" r="15.58" transform="translate(-834.27 281.57) rotate(-33.87)"/><path class="cls-3" d="m188.36,1508.14s.72-14,11.94-14.04c11.67-.05,19.69,37.73-5.97,32.83-25.66-4.9-5.97-18.79-5.97-18.79Z"/><path class="cls-7" d="m193.96,1516.21c-.21-.06-.17-.87.08-2.15.3-1.27.76-3.04,1.99-4.8.63-.83,1.48-1.74,2.74-1.81,1.24-.03,1.99.71,2.42,1.23.89,1.11,1,1.97.83,2.06-.2.11-.69-.55-1.6-1.27-.44-.35-1.03-.68-1.54-.58-.51.04-1.08.61-1.59,1.3-1.96,3-2.81,6.22-3.33,6.03Z"/><path class="cls-7" d="m196.8,1521.97c.15-.2.77.24,1.56.1.74-.1,1.79-1.09,2.03-2.31.46-3.13-3.17-1.22-3.13-1.73-.1-.16.33-.77,1.48-1.2.53-.18,1.54-.39,2.39.4.4.37.59.85.73,1.31.08.42.19.95.07,1.49-.42,2.01-2.12,3.26-3.56,3.14-1.43-.22-1.69-1.13-1.57-1.2Z"/><path class="cls-8" d="m136.06,1554.84s2.55-20.18,18.13-22.99c15.58-2.81,23.75,24.77,32.69-1.28,0,0-8.68,45.53-50.83,24.26Z"/><path class="cls-8" d="m136.06,1554.84s-14.16-17.3-22.43-11.97c-8.27,5.33-4.78,24.81-19.29,13.05,0,0,14.18,34.23,41.73-1.08Z"/><path class="cls-8" d="m92.68,1535.16s1.29-15.8,24.26-16.72c0,0-5.76-9-8.34-12.31-2.57-3.31-25.29,7.35-15.92,29.03Z"/><path class="cls-8" d="m135.12,1512s14.52-9.92,33.44,2.76c0,0-12.73-31.24-38.04-16.91,0,0,3.04,10.39,4.59,14.15Z"/><path class="cls-3" d="m123.72,1529.5s11.95,39.51,12.34,25.34"/><path class="cls-7" d="m136.06,1554.84c.1,0,.21.48.21,1.38-.03.46.03.98-.38,1.74-.13.19-.41.43-.78.41-.32-.02-.57-.16-.73-.29-.36-.27-.61-.58-.87-.91-1.88-2.67-3.48-6.67-5.13-11.13-3.22-8.94-5.06-16.42-4.66-16.54.43-.13,2.93,7.13,6.13,16,1.63,4.41,3.09,8.47,4.57,11.04.38.64.87,1.06.77.89.25-.3.38-.89.47-1.28.18-.83.28-1.31.39-1.31Z"/><path class="cls-8" d="m143.78,1529.43c1.03,3.31.21,6.52-1.83,7.15-2.04.64-4.54-1.53-5.57-4.85-1.03-3.31-.21-6.52,1.83-7.15s4.54,1.53,5.57,4.85Z"/><path class="cls-8" d="m120.38,1534.73c.89,2.87.18,5.64-1.58,6.19-1.77.55-3.93-1.33-4.82-4.2-.89-2.87-.19-5.64,1.58-6.19,1.77-.55,3.93,1.33,4.82,4.2Z"/><path class="cls-8" d="m143.48,1564.4c0,1.73-1.12,3.14-2.51,3.14s-2.51-1.41-2.51-3.14,1.12-3.14,2.51-3.14,2.51,1.41,2.51,3.14Z"/><path class="cls-8" d="m498.78,996.69c-2.27-6.05-82.38,29.11-79.85,41.56.02.12.1.35.21.64,7.5-6.7,30.46-24.19,80.01-40.33-.06-.67-.17-1.32-.38-1.87Z"/><path class="cls-4" d="m494.06,1017.08s5.75-11.82,5.1-18.52c-49.56,16.13-72.51,33.63-80.01,40.33,1.94,5.09,16.83,35.71,30.16,74.21,17.34-11.94,44.82-27.92,74.69-34-14.32-28.03-26.6-49.69-29.93-62.01Z"/><path class="cls-7" d="m495.06,1021.44c.04-.09,1.69.42,4.61,1.59,2.91,1.19,7.12,2.97,12.05,5.81,2.44,1.46,5.14,3.1,7.49,5.68.58.65,1.11,1.41,1.49,2.29.4.91.5,1.95.25,3-.1.54-.51,1.14-1.1,1.48-.6.26-1.21.29-1.73.21-1.06-.15-1.96-.54-2.84-.97-3.48-1.76-6.62-4.23-9.85-6.82-3.2-2.63-6.41-5.47-9.61-8.52l1.32-.49c-.18,1.94-.43,3.9-.77,5.87-.83,4.72-2.1,9.24-3.8,13.43-1.78,4.14-3.67,8.19-7.06,11.08-.87.64-2.02,1.36-3.4,1.02-1.38-.39-2.01-1.57-2.38-2.52-.75-2.15-.28-4.15.09-5.98.95-3.64,2.53-6.71,3.98-9.47,2.96-5.5,5.88-9.62,7.89-12.46,1.02-1.41,1.84-2.48,2.42-3.19.56-.69.94-1.09.95-1.03.09.07-.99,1.65-2.87,4.57-1.85,2.92-4.61,7.13-7.41,12.62-1.37,2.75-2.86,5.82-3.7,9.27-.34,1.7-.66,3.58-.07,5.17.3.81.84,1.54,1.46,1.67.61.18,1.45-.23,2.17-.79,2.9-2.49,4.85-6.5,6.52-10.51,1.64-4.09,2.87-8.52,3.68-13.13.33-1.92.58-3.84.76-5.74.04-.43.42-.75.85-.7.18.02.34.1.47.21,3.15,3.01,6.34,5.86,9.48,8.48,3.16,2.58,6.28,5.06,9.51,6.73,1.51.79,3.64,1.46,3.76.18.41-1.45-.4-2.91-1.41-4.11-2.11-2.4-4.74-4.11-7.09-5.59-4.79-2.92-8.91-4.84-11.73-6.19-2.83-1.33-4.41-2.03-4.37-2.13Z"/><path class="cls-7" d="m516.06,1045.61c.17.4-4.58,2.79-10.61,5.35-6.03,2.56-11.05,4.3-11.22,3.91-.17-.4,4.58-2.79,10.61-5.35,6.03-2.56,11.05-4.3,11.22-3.91Z"/><path class="cls-7" d="m519.62,1054.03c.17.4-4.58,2.79-10.61,5.35-6.03,2.56-11.05,4.3-11.22,3.91-.17-.4,4.58-2.79,10.61-5.35,6.03-2.56,11.05-4.3,11.22-3.91Z"/><path class="cls-2" d="m534.62,1100.29c7.04-6.27,9.31-10.88,9.41-13.06.49-11.48-17.37-21.76-21.46-21.47-18.72,1.31-64.7,21.52-78.23,33.59-13.53,12.08-3.82,32.84-3.82,32.84,0,0-2.83-12.31,66.3-38.16,45.16-16.88,37.75-5.24,27.18,4.86l.62,1.41Z"/></g></svg>