<svg width="281" height="101" viewBox="0 0 281 101" fill="none" xmlns="http://www.w3.org/2000/svg">
<g clip-path="url(#clip0_26_94575)">
<path d="M277.806 35.6776C272.977 34.8476 270.426 35.1325 270.426 31.5276C270.426 27.9227 266.835 26.7334 267.269 20.9358C267.306 20.4031 267.343 19.9943 268.21 20.1554C270.315 20.527 272.519 20.9854 273.682 20.7995C274.165 20.7252 274.339 20.3783 274.388 19.9943C274.586 19.9448 274.76 19.8952 274.921 19.8209C275.428 19.5731 275.998 18.3839 274.203 17.653C272.915 17.1327 270.414 15.2373 267.64 14.0604C271.999 10.7652 270.538 6.85056 270.525 6.80101C270.302 6.24355 269.683 5.97101 269.126 6.194C268.569 6.41698 268.297 7.03639 268.519 7.59385C268.519 7.61862 269.213 9.47684 267.294 11.4961C267.306 10.2449 267.046 9.12997 266.749 8.39907C266.526 7.854 265.894 7.58146 265.337 7.81683C264.793 8.05221 264.52 8.684 264.755 9.22907C264.755 9.25385 265.56 11.2359 264.842 13.2056C264.669 13.1809 264.495 13.1437 264.31 13.1313C263.071 13.0198 262.341 13.5154 261.932 14.2586C261.363 14.1471 260.818 14.0109 260.298 13.8746C258.973 12.5119 260.533 9.94758 260.558 9.92281C260.88 9.4149 260.719 8.74594 260.224 8.43624C259.716 8.11415 259.047 8.2628 258.738 8.77072C258.119 9.74937 257.475 11.3722 257.624 12.9579C256.992 12.6853 256.398 12.3756 255.853 12.0412C254.565 8.1637 256.806 5.09146 256.905 4.95519C257.265 4.48444 257.178 3.8031 256.695 3.44384C256.224 3.08459 255.543 3.1713 255.184 3.65444C255.085 3.79071 253.203 6.33026 253.302 9.88564C253.018 9.55116 252.758 9.19191 252.522 8.82027C250.356 5.30205 251.482 1.4122 251.495 1.37503C251.668 0.805182 251.346 0.198166 250.777 0.0247329C250.207 -0.1487 249.6 0.17339 249.427 0.743241C249.365 0.941451 247.991 5.5622 250.665 9.92281C251.544 11.3598 252.758 12.5739 254.281 13.5897C254.33 13.6392 254.392 13.6764 254.454 13.7136C256.324 14.9152 258.664 15.8071 261.449 16.3646C261.4 17.6034 261.635 18.7183 261.635 18.7183C261.635 18.7183 261.759 19.7589 261.747 21.2455C259.035 19.6227 254.689 17.7149 249.699 18.2228C244.549 18.7431 239.93 21.7163 235.956 27.0555C225.085 41.6487 212.27 45.427 205.064 44.5847C204.841 43.6679 204.717 42.5902 204.816 41.277C204.853 40.7443 204.89 40.3355 205.757 40.4966C207.862 40.8682 210.066 41.3266 211.23 41.1408C211.713 41.0664 211.886 40.7196 211.936 40.3355C212.134 40.286 212.307 40.2364 212.468 40.1621C212.976 39.9143 213.545 38.7251 211.75 37.9942C210.462 37.4739 207.961 35.5785 205.188 34.4016C209.546 31.1064 208.085 27.1918 208.072 27.1422C207.85 26.5848 207.231 26.3122 206.673 26.5352C206.116 26.7582 205.844 27.3776 206.067 27.9351C206.067 27.9598 206.76 29.8181 204.841 31.8373C204.853 30.5861 204.593 29.4712 204.296 28.7403C204.073 28.1952 203.442 27.9227 202.885 28.1581C202.34 28.3934 202.067 29.0252 202.303 29.5703C202.303 29.5951 203.107 31.5772 202.389 33.5469C202.216 33.5221 202.043 33.4849 201.857 33.4725C200.619 33.361 199.888 33.8566 199.48 34.5999C198.91 34.4884 198.365 34.3521 197.845 34.2158C196.52 32.8531 198.081 30.2888 198.105 30.264C198.427 29.7561 198.266 29.0872 197.771 28.7775C197.263 28.4554 196.595 28.604 196.285 29.1119C195.666 30.0906 195.022 31.7134 195.171 33.2991C194.539 33.0266 193.945 32.7169 193.4 32.3824C192.113 28.5049 194.354 25.4327 194.453 25.2964C194.812 24.8257 194.725 24.1443 194.242 23.7851C193.772 23.4258 193.091 23.5125 192.732 23.9957C192.633 24.1319 190.751 26.6715 190.85 30.2269C190.565 29.8924 190.305 29.5331 190.07 29.1615C187.903 25.6433 189.03 21.7534 189.042 21.7163C189.215 21.1464 188.893 20.5394 188.324 20.366C187.754 20.1925 187.148 20.5146 186.974 21.0845C186.912 21.2827 185.538 25.9034 188.212 30.264C189.092 31.701 190.305 32.9151 191.828 33.9309C191.877 33.9805 191.939 34.0176 192.001 34.0548C193.871 35.2564 196.211 36.1484 198.997 36.7058C198.947 37.9446 199.183 39.0596 199.183 39.0596C199.183 39.0596 199.393 40.8682 199.244 43.1229C189.785 41.0788 179.694 43.3582 168.513 50.0726C157.878 56.4524 149.495 57.6293 145.149 57.716C144.79 56.6382 144.58 55.3623 144.704 53.7023C144.741 53.1696 144.778 52.7608 145.645 52.9218C147.749 53.2935 149.953 53.7518 151.117 53.566C151.6 53.4917 151.773 53.1448 151.823 52.7608C152.021 52.7112 152.194 52.6617 152.355 52.5873C152.863 52.3396 153.433 51.1503 151.637 50.4194C150.35 49.8991 147.848 48.0038 145.075 46.8269C149.433 43.5317 147.972 39.617 147.96 39.5675C147.737 39.01 147.118 38.7375 146.561 38.9605C146.004 39.1834 145.731 39.8029 145.954 40.3603C145.954 40.3851 146.647 42.2433 144.728 44.2626C144.741 43.0114 144.481 41.8964 144.184 41.1655C143.961 40.6205 143.329 40.3479 142.772 40.5833C142.227 40.8187 141.955 41.4505 142.19 41.9955C142.19 42.0203 142.995 44.0024 142.277 45.9721C142.103 45.9473 141.93 45.9102 141.744 45.8978C140.506 45.7863 139.776 46.2818 139.367 47.0251C138.798 46.9136 138.253 46.7773 137.733 46.6411C136.408 45.2784 137.968 42.714 137.993 42.6893C138.315 42.1814 138.154 41.5124 137.658 41.2027C137.151 40.8806 136.482 41.0293 136.173 41.5372C135.554 42.5158 134.91 44.1387 135.058 45.7243C134.427 45.4518 133.833 45.1421 133.288 44.8076C132 40.9302 134.241 37.8579 134.34 37.7217C134.699 37.2509 134.613 36.5696 134.13 36.2103C133.659 35.8511 132.978 35.9378 132.619 36.4209C132.52 36.5572 130.638 39.0967 130.737 42.6521C130.452 42.3176 130.192 41.9584 129.957 41.5867C127.79 38.0685 128.917 34.1787 128.929 34.1415C129.103 33.5716 128.781 32.9646 128.211 32.7912C127.642 32.6178 127.035 32.9399 126.862 33.5097C126.8 33.7079 125.425 38.3287 128.1 42.6893C128.979 44.1263 130.192 45.3403 131.715 46.3561C131.765 46.4057 131.827 46.4429 131.889 46.48C133.758 47.6817 136.098 48.5736 138.884 49.1311C138.835 50.3699 139.07 51.4848 139.07 51.4848C139.07 51.4848 139.417 54.4208 138.909 57.4806C122.38 57.109 112.103 53.5784 102.99 50.4318C98.5574 48.9081 94.36 47.4587 89.8779 46.542C80.8393 44.6838 74.4257 46.8021 70.8598 48.6727C68.7054 45.5138 65.7586 45.2288 65.7586 46.4305C65.7586 46.8888 65.5729 47.5454 65.3624 48.2763C64.2976 47.9418 62.8489 47.7436 61.9822 46.9632C60.1869 45.3403 58.4658 41.7354 54.5037 42.6397C51.4579 43.3335 46.5424 45.3032 44.2765 46.8393C43.8803 46.4181 43.3232 46.1579 42.7041 46.1579C41.5154 46.1579 40.5373 47.1242 40.5373 48.3258C40.5373 49.5275 41.5031 50.4938 42.7041 50.4938C43.546 50.4938 44.2765 49.9982 44.6356 49.2921C45.9852 49.5523 47.8796 49.4036 49.0063 48.7842C50.9874 47.7064 50.8016 49.862 50.0835 51.1256C49.3654 52.3891 50.4426 54.3712 51.1607 55.0897C51.8788 55.8083 52.597 56.886 51.5198 57.4311C50.4426 57.9762 46.7529 58.3354 44.6728 63.3774C44.6728 63.3774 43.4965 61.2094 39.9925 59.2274C34.2351 55.9817 21.6554 51.8441 13.9912 57.8027C10.8463 58.3478 9.65763 60.9989 9.34809 63.4145L2.20392 67.1681L1.05243 67.7751L2.30297 68.1592L3.46684 68.5184L0.160961 78.8501L0 79.3704L0.520026 79.5314L9.03856 82.1825L9.55858 82.3435L9.71954 81.8232L12.914 71.5659L14.0779 71.9251L15.3284 72.3092L14.7217 71.1571L10.8586 63.7986C11.0072 62.3368 11.5644 60.5405 13.1988 59.7724C15.5636 60.813 21.7421 63.8481 24.0574 68.122C26.5337 72.6932 27.7967 85.775 36.0552 89.5534L31.0406 97.9897L22.4354 98.0392C16.1951 98.2374 18.3867 89.764 21.1973 88.5128C24.8498 86.8899 26.769 87.819 28.1929 90.1108C30.112 93.1707 25.4937 96.6022 25.4937 96.6022C29.0967 96.6022 31.4368 92.638 30.3596 89.7516C29.2824 86.8652 27.3385 86.0352 25.8527 85.6759C22.9059 84.9698 16.8018 85.5396 15.2541 91.5602C13.8426 96.9986 17.1485 100.752 21.7173 100.926C21.7173 100.926 87.8226 101.111 90.8808 100.926C93.9391 100.74 96.7125 98.9683 97.864 97.5065C100.278 94.4343 102.656 90.0489 100.501 81.2162C98.3345 72.3835 92.1933 70.4757 86.7454 67.5893C82.0156 65.0869 76.7906 64.1826 75.2181 62.0023C74.339 60.7883 74.1533 59.4008 74.6114 58.0133L75.0324 57.0718C75.2057 56.7621 75.4038 56.4524 75.6391 56.1427C77.1868 54.1854 80.2574 55.1517 81.1489 57.6788C82.0404 60.206 78.4497 62.0023 78.4497 62.0023C80.9755 62.9066 82.8328 61.482 83.489 58.9424C84.0709 56.6878 82.4366 54.7057 81.3222 53.9005C80.2203 53.0953 75.1067 50.9273 72.6056 56.2294C72.0484 56.725 71.6027 57.2205 71.417 57.5054C70.9836 58.2363 71.3427 52.8723 71.2312 50.3699C74.5 48.5984 80.666 46.4057 89.4445 48.202C93.8152 49.1063 97.9631 50.5309 102.346 52.0423C111.509 55.2012 121.835 58.7566 138.438 59.1654C138.216 59.9706 137.906 60.7635 137.51 61.4572C135.343 65.2356 121.773 67.676 116.795 66.685C115.929 66.5116 114.517 66.0532 113.787 64.8887C113.7 64.7524 113.527 64.6781 113.366 64.7153C113.205 64.7524 113.081 64.8887 113.056 65.0498C112.833 66.6974 113.143 69.6457 117.34 71.7393C117.34 71.7393 118.603 72.8171 116.795 74.7992C115 76.7813 112.833 77.6856 111.038 78.2183C111.038 78.2183 109.243 85.0689 104.191 87.2244V91.1886C104.191 91.1886 111.422 87.6952 113.242 81.6126C113.242 81.6126 119.866 85.329 125.537 78.2059C125.537 78.2059 135.355 79.9154 142.202 72.9781C142.202 72.9781 154.46 71.5287 154.658 72.2844C155.203 74.378 148.245 79.9898 146.957 81.6126L146.895 84.338C147.972 84.338 156.057 77.3387 157.568 72.9657C158.063 71.5163 159.995 69.3112 155.178 68.4812C150.35 67.6512 147.799 67.9362 147.799 64.3312C147.799 62.3368 146.709 61.0856 145.806 59.3884C150.511 59.215 158.806 57.8027 169.293 51.5096C180.164 44.9811 189.933 42.776 199.022 44.7952C198.811 46.257 198.415 47.7684 197.697 49.0196C195.53 52.7979 181.96 55.2384 176.982 54.2473C176.116 54.0739 174.704 53.6156 173.974 52.4511C173.887 52.3148 173.714 52.2405 173.553 52.2776C173.392 52.3148 173.268 52.4511 173.243 52.6121C173.02 54.2597 173.33 57.2081 177.527 59.3017C177.527 59.3017 178.79 60.3794 176.982 62.3615C175.187 64.3436 173.02 65.248 171.225 65.7806C171.225 65.7806 169.43 72.6313 164.378 74.7868V78.751C164.378 78.751 171.609 75.2575 173.429 69.175C173.429 69.175 180.053 72.8914 185.724 65.7683C185.724 65.7683 195.542 67.4778 202.389 60.5405C202.389 60.5405 214.647 59.0911 214.845 59.8468C215.39 61.9403 208.432 67.5521 207.144 69.175L207.082 71.9004C208.159 71.9004 216.244 64.9011 217.755 60.5281C218.25 59.0787 220.182 56.8736 215.365 56.0436C210.536 55.2136 207.986 55.4985 207.986 51.8936C207.986 49.6514 206.599 48.3382 205.658 46.2818C213.458 46.8021 226.397 42.6645 237.281 28.059C240.97 23.1037 245.205 20.3536 249.873 19.8704C254.875 19.3501 259.283 21.58 261.697 23.1533C261.549 24.9743 261.152 27.0307 260.224 28.666C258.057 32.4443 244.487 34.8848 239.509 33.8937C238.643 33.7203 237.231 33.2619 236.501 32.0975C236.414 31.9612 236.241 31.8869 236.08 31.924C235.919 31.9612 235.795 32.0975 235.77 32.2585C235.547 33.9061 235.857 36.8545 240.054 38.9481C240.054 38.9481 241.317 40.0258 239.509 42.0079C237.714 43.99 235.547 44.8943 233.752 45.427C233.752 45.427 231.957 52.2776 226.905 54.4332V58.3974C226.905 58.3974 234.136 54.9039 235.956 48.8214C235.956 48.8214 242.58 52.5378 248.251 45.4146C248.251 45.4146 258.069 47.1242 264.916 40.1869C264.916 40.1869 277.174 38.7375 277.372 39.4931C277.917 41.5867 270.959 47.1985 269.671 48.8214L269.609 51.5467C270.686 51.5467 278.771 44.5475 280.282 40.1745C280.777 38.7251 282.709 36.52 277.892 35.69L277.806 35.6776ZM2.88491 77.5741L5.24979 69.9554L6.9213 70.4757L4.55642 78.0944L2.88491 77.5741ZM8.17184 79.2217L6.50033 78.7014L8.86521 71.0827L10.5367 71.603L8.17184 79.2217ZM65.3252 53.0705C66.4643 54.619 68.6187 56.7497 68.334 57.4806C67.9749 58.385 65.9938 59.6486 65.2757 58.5584C65.2757 58.5584 64.7433 55.7587 65.3252 53.0705ZM38.6677 90.371C43.026 91.1762 50.0216 91.7832 56.9677 91.9567L55.3209 97.8286L34.1608 97.9525L38.6677 90.371ZM58.1315 97.8162L59.7659 92.0062C62.7003 92.031 65.5605 91.9814 68.1482 91.8204L72.6675 97.7295L58.1315 97.8162ZM86.8816 97.6552L76.0477 97.7171L71.3551 91.5602C75.1191 91.1638 77.8925 90.4825 78.784 89.4543C79.5764 88.5376 80.1336 87.658 80.5422 86.7908L94.0505 95.9828C90.7075 98.1259 86.8816 97.6428 86.8816 97.6428V97.6552ZM72.1351 61.7421C73.3361 64.7277 76.803 65.9417 76.803 65.9417C84.009 68.6423 84.1329 68.2459 91.8218 73.1516C99.8575 78.2926 99.4984 86.3696 98.0993 90.5816C97.6164 92.0558 96.9354 93.2202 96.1554 94.1493L81.4337 84.1274C82.0775 80.5225 80.7155 77.4378 82.028 74.9478C83.65 71.888 85.9529 74.6505 86.3492 75.8522C86.8939 77.475 86.1634 79.6305 86.1634 79.6305C86.1634 79.6305 89.4074 74.1302 86.5225 71.4296C83.6376 68.729 78.784 68.0972 75.3543 71.8756C71.937 75.6539 69.5969 74.4028 69.5969 74.4028C69.5969 74.4028 69.9559 68.2707 68.5197 66.1151C68.5197 66.1151 70.3769 63.4393 72.1351 61.7298V61.7421Z" fill="#C41616"/>
</g>
<defs>
<clipPath id="clip0_26_94575">
<rect width="281" height="101" fill="white"/>
</clipPath>
</defs>
</svg>
