<svg width="509" height="720" viewBox="0 0 509 720" fill="none" xmlns="http://www.w3.org/2000/svg">
<mask id="mask0_116_457" style="mask-type:luminance" maskUnits="userSpaceOnUse" x="0" y="0" width="509" height="720">
<path d="M509 0H0V719.881H509V0Z" fill="white"/>
</mask>
<g mask="url(#mask0_116_457)">
<path d="M531.299 -23.5612H-20.1953V745.033H531.299V-23.5612Z" fill="#CEAC57"/>
<path d="M460.377 47.3969H48.6406V672.502H460.377V47.3969Z" fill="#F4ECD8"/>
<path d="M446 657.74H63.0195V62.141H445.981V657.758L446 657.74ZM63.8793 656.88H445.14V63.0008H63.8793V656.898V656.88Z" fill="#BA253E"/>
<path d="M165.715 111.093H163.022V102.365H165.835C166.681 102.365 167.406 102.54 168.008 102.89C168.61 103.236 169.072 103.735 169.393 104.385C169.714 105.033 169.874 105.809 169.874 106.712C169.874 107.621 169.712 108.404 169.389 109.06C169.065 109.713 168.593 110.216 167.974 110.569C167.355 110.918 166.602 111.093 165.715 111.093ZM164.079 110.155H165.647C166.369 110.155 166.967 110.016 167.441 109.738C167.916 109.459 168.269 109.063 168.502 108.549C168.735 108.034 168.852 107.422 168.852 106.712C168.852 106.007 168.737 105.401 168.507 104.892C168.276 104.381 167.933 103.989 167.475 103.716C167.018 103.441 166.448 103.303 165.766 103.303H164.079V110.155ZM174.255 111.229C173.624 111.229 173.08 111.09 172.623 110.811C172.168 110.53 171.818 110.138 171.57 109.635C171.326 109.13 171.204 108.542 171.204 107.871C171.204 107.201 171.326 106.61 171.57 106.098C171.818 105.584 172.161 105.184 172.602 104.897C173.045 104.607 173.562 104.462 174.153 104.462C174.494 104.462 174.83 104.519 175.163 104.632C175.495 104.746 175.798 104.931 176.07 105.186C176.343 105.439 176.561 105.774 176.722 106.192C176.884 106.61 176.965 107.124 176.965 107.735V108.161H171.92V107.292H175.943C175.943 106.922 175.869 106.593 175.721 106.303C175.576 106.013 175.369 105.784 175.099 105.617C174.832 105.449 174.516 105.365 174.153 105.365C173.752 105.365 173.406 105.465 173.113 105.664C172.823 105.86 172.6 106.115 172.444 106.431C172.288 106.746 172.21 107.084 172.21 107.445V108.024C172.21 108.519 172.295 108.938 172.465 109.282C172.639 109.622 172.879 109.882 173.186 110.061C173.492 110.238 173.849 110.326 174.255 110.326C174.519 110.326 174.758 110.289 174.971 110.215C175.187 110.138 175.373 110.024 175.529 109.874C175.686 109.72 175.806 109.53 175.891 109.303L176.863 109.576C176.761 109.905 176.589 110.195 176.347 110.445C176.106 110.692 175.808 110.885 175.453 111.024C175.097 111.161 174.698 111.229 174.255 111.229ZM180.421 111.246C180.007 111.246 179.63 111.168 179.292 111.012C178.954 110.853 178.686 110.624 178.487 110.326C178.288 110.024 178.188 109.661 178.188 109.235C178.188 108.86 178.262 108.556 178.41 108.323C178.558 108.087 178.755 107.902 179.002 107.769C179.249 107.635 179.522 107.536 179.82 107.47C180.122 107.402 180.424 107.348 180.728 107.309C181.126 107.257 181.448 107.219 181.695 107.194C181.945 107.165 182.127 107.118 182.241 107.053C182.357 106.988 182.416 106.874 182.416 106.712V106.678C182.416 106.257 182.301 105.931 182.07 105.698C181.843 105.465 181.498 105.348 181.035 105.348C180.555 105.348 180.178 105.453 179.906 105.664C179.633 105.874 179.441 106.098 179.33 106.337L178.376 105.996C178.546 105.598 178.774 105.289 179.058 105.067C179.345 104.843 179.657 104.686 179.995 104.598C180.336 104.507 180.671 104.462 181.001 104.462C181.211 104.462 181.453 104.488 181.725 104.539C182.001 104.587 182.266 104.688 182.522 104.841C182.781 104.995 182.995 105.226 183.166 105.536C183.336 105.845 183.421 106.26 183.421 106.78V111.093H182.416V110.206H182.364C182.296 110.348 182.183 110.5 182.024 110.662C181.864 110.824 181.653 110.962 181.389 111.076C181.124 111.189 180.802 111.246 180.421 111.246ZM180.575 110.343C180.972 110.343 181.308 110.265 181.58 110.108C181.856 109.952 182.063 109.75 182.203 109.503C182.345 109.256 182.416 108.996 182.416 108.723V107.803C182.373 107.854 182.279 107.901 182.134 107.944C181.992 107.983 181.828 108.019 181.64 108.05C181.455 108.078 181.275 108.104 181.099 108.127C180.926 108.147 180.785 108.164 180.677 108.178C180.416 108.212 180.171 108.267 179.944 108.344C179.72 108.418 179.538 108.53 179.399 108.681C179.262 108.828 179.194 109.03 179.194 109.286C179.194 109.635 179.323 109.899 179.582 110.078C179.843 110.255 180.174 110.343 180.575 110.343ZM185.257 111.093V104.547H186.228V105.536H186.297C186.416 105.212 186.632 104.949 186.944 104.747C187.257 104.546 187.609 104.445 188.001 104.445C188.075 104.445 188.167 104.446 188.278 104.449C188.389 104.452 188.473 104.456 188.53 104.462V105.485C188.496 105.476 188.417 105.463 188.295 105.446C188.176 105.426 188.049 105.417 187.916 105.417C187.598 105.417 187.314 105.483 187.064 105.617C186.817 105.747 186.621 105.929 186.476 106.162C186.334 106.392 186.263 106.655 186.263 106.951V111.093H185.257ZM198.006 104.547C197.955 104.115 197.747 103.78 197.384 103.542C197.02 103.303 196.574 103.184 196.046 103.184C195.659 103.184 195.321 103.246 195.031 103.371C194.744 103.496 194.52 103.668 194.358 103.887C194.199 104.105 194.119 104.354 194.119 104.632C194.119 104.865 194.175 105.066 194.286 105.233C194.399 105.398 194.544 105.536 194.72 105.647C194.896 105.755 195.081 105.844 195.274 105.915C195.467 105.983 195.645 106.039 195.807 106.081L196.693 106.32C196.921 106.38 197.173 106.462 197.452 106.567C197.733 106.672 198.002 106.816 198.257 106.997C198.516 107.176 198.729 107.407 198.896 107.688C199.064 107.969 199.148 108.314 199.148 108.723C199.148 109.195 199.024 109.621 198.777 110.002C198.533 110.382 198.175 110.685 197.703 110.909C197.235 111.134 196.665 111.246 195.994 111.246C195.369 111.246 194.828 111.145 194.371 110.944C193.916 110.742 193.558 110.461 193.297 110.1C193.038 109.739 192.892 109.32 192.858 108.843H193.949C193.977 109.172 194.088 109.445 194.281 109.661C194.477 109.874 194.725 110.033 195.023 110.138C195.324 110.24 195.648 110.292 195.994 110.292C196.398 110.292 196.76 110.226 197.081 110.095C197.402 109.962 197.656 109.777 197.844 109.542C198.031 109.303 198.125 109.024 198.125 108.706C198.125 108.417 198.044 108.181 197.882 107.999C197.72 107.817 197.507 107.669 197.243 107.556C196.979 107.442 196.693 107.343 196.386 107.257L195.313 106.951C194.631 106.755 194.091 106.475 193.693 106.111C193.296 105.747 193.097 105.272 193.097 104.684C193.097 104.195 193.229 103.769 193.493 103.405C193.76 103.039 194.118 102.755 194.567 102.553C195.019 102.348 195.523 102.246 196.08 102.246C196.642 102.246 197.142 102.347 197.58 102.549C198.017 102.747 198.364 103.02 198.619 103.367C198.878 103.713 199.014 104.107 199.029 104.547H198.006ZM202.675 111.246C202.26 111.246 201.884 111.168 201.546 111.012C201.208 110.853 200.939 110.624 200.741 110.326C200.542 110.024 200.442 109.661 200.442 109.235C200.442 108.86 200.516 108.556 200.664 108.323C200.812 108.087 201.009 107.902 201.256 107.769C201.503 107.635 201.776 107.536 202.074 107.47C202.375 107.402 202.678 107.348 202.982 107.309C203.38 107.257 203.702 107.219 203.949 107.194C204.199 107.165 204.381 107.118 204.495 107.053C204.611 106.988 204.67 106.874 204.67 106.712V106.678C204.67 106.257 204.554 105.931 204.324 105.698C204.097 105.465 203.752 105.348 203.289 105.348C202.809 105.348 202.432 105.453 202.16 105.664C201.887 105.874 201.695 106.098 201.584 106.337L200.63 105.996C200.8 105.598 201.027 105.289 201.312 105.067C201.598 104.843 201.911 104.686 202.249 104.598C202.59 104.507 202.925 104.462 203.255 104.462C203.465 104.462 203.706 104.488 203.979 104.539C204.255 104.587 204.52 104.688 204.776 104.841C205.035 104.995 205.249 105.226 205.42 105.536C205.59 105.845 205.675 106.26 205.675 106.78V111.093H204.67V110.206H204.618C204.55 110.348 204.437 110.5 204.277 110.662C204.118 110.824 203.907 110.962 203.643 111.076C203.378 111.189 203.056 111.246 202.675 111.246ZM202.829 110.343C203.226 110.343 203.562 110.265 203.834 110.108C204.11 109.952 204.317 109.75 204.456 109.503C204.598 109.256 204.67 108.996 204.67 108.723V107.803C204.627 107.854 204.533 107.901 204.388 107.944C204.246 107.983 204.081 108.019 203.894 108.05C203.709 108.078 203.529 108.104 203.353 108.127C203.179 108.147 203.039 108.164 202.931 108.178C202.67 108.212 202.425 108.267 202.198 108.344C201.973 108.418 201.792 108.53 201.652 108.681C201.516 108.828 201.448 109.03 201.448 109.286C201.448 109.635 201.577 109.899 201.836 110.078C202.097 110.255 202.428 110.343 202.829 110.343ZM208.516 107.155V111.093H207.511V104.547H208.482V105.57H208.568C208.721 105.238 208.954 104.97 209.266 104.769C209.579 104.564 209.982 104.462 210.477 104.462C210.92 104.462 211.308 104.553 211.64 104.735C211.972 104.914 212.231 105.186 212.416 105.553C212.6 105.917 212.693 106.377 212.693 106.934V111.093H211.687V107.002C211.687 106.488 211.553 106.087 211.286 105.8C211.019 105.51 210.653 105.365 210.187 105.365C209.866 105.365 209.579 105.435 209.326 105.574C209.076 105.713 208.879 105.917 208.734 106.184C208.589 106.451 208.516 106.774 208.516 107.155ZM217.377 104.547V105.399H213.985V104.547H217.377ZM214.973 102.979H215.979V109.218C215.979 109.502 216.02 109.715 216.103 109.857C216.188 109.996 216.296 110.09 216.427 110.138C216.56 110.184 216.701 110.206 216.848 110.206C216.959 110.206 217.05 110.201 217.121 110.189C217.192 110.175 217.249 110.164 217.292 110.155L217.496 111.059C217.428 111.084 217.333 111.11 217.211 111.135C217.089 111.164 216.934 111.178 216.746 111.178C216.462 111.178 216.184 111.117 215.911 110.995C215.641 110.872 215.417 110.686 215.238 110.436C215.062 110.186 214.973 109.871 214.973 109.49V102.979ZM220.816 111.246C220.401 111.246 220.025 111.168 219.687 111.012C219.348 110.853 219.08 110.624 218.881 110.326C218.682 110.024 218.583 109.661 218.583 109.235C218.583 108.86 218.657 108.556 218.804 108.323C218.952 108.087 219.15 107.902 219.397 107.769C219.644 107.635 219.917 107.536 220.215 107.47C220.516 107.402 220.819 107.348 221.123 107.309C221.52 107.257 221.843 107.219 222.09 107.194C222.34 107.165 222.522 107.118 222.635 107.053C222.752 106.988 222.81 106.874 222.81 106.712V106.678C222.81 106.257 222.695 105.931 222.465 105.698C222.238 105.465 221.893 105.348 221.429 105.348C220.949 105.348 220.573 105.453 220.3 105.664C220.027 105.874 219.836 106.098 219.725 106.337L218.77 105.996C218.941 105.598 219.168 105.289 219.452 105.067C219.739 104.843 220.052 104.686 220.39 104.598C220.731 104.507 221.066 104.462 221.395 104.462C221.606 104.462 221.847 104.488 222.12 104.539C222.395 104.587 222.661 104.688 222.917 104.841C223.175 104.995 223.39 105.226 223.56 105.536C223.731 105.845 223.816 106.26 223.816 106.78V111.093H222.81V110.206H222.759C222.691 110.348 222.577 110.5 222.418 110.662C222.259 110.824 222.047 110.962 221.783 111.076C221.519 111.189 221.197 111.246 220.816 111.246ZM220.969 110.343C221.367 110.343 221.702 110.265 221.975 110.108C222.25 109.952 222.458 109.75 222.597 109.503C222.739 109.256 222.81 108.996 222.81 108.723V107.803C222.768 107.854 222.674 107.901 222.529 107.944C222.387 107.983 222.222 108.019 222.035 108.05C221.85 108.078 221.67 108.104 221.493 108.127C221.32 108.147 221.179 108.164 221.072 108.178C220.81 108.212 220.566 108.267 220.339 108.344C220.114 108.418 219.932 108.53 219.793 108.681C219.657 108.828 219.589 109.03 219.589 109.286C219.589 109.635 219.718 109.899 219.976 110.078C220.238 110.255 220.569 110.343 220.969 110.343Z" fill="#BA253E"/>
<path d="M87.5866 159.807H85.4463V160.667H87.5866V159.807Z" fill="#BA253E"/>
<path d="M417.206 160.667H412.981V159.807H417.206V160.667ZM408.755 160.667H404.529V159.807H408.755V160.667ZM400.304 160.667H396.078V159.807H400.304V160.667ZM391.852 160.667H387.627V159.807H391.852V160.667ZM383.401 160.667H379.175V159.807H383.401V160.667ZM374.95 160.667H370.724V159.807H374.95V160.667ZM366.498 160.667H362.273V159.807H366.498V160.667ZM358.047 160.667H353.822V159.807H358.047V160.667ZM349.596 160.667H345.37V159.807H349.596V160.667ZM341.145 160.667H336.919V159.807H341.145V160.667ZM332.693 160.667H328.468V159.807H332.693V160.667ZM324.242 160.667H320.016V159.807H324.242V160.667ZM315.791 160.667H311.565V159.807H315.791V160.667ZM307.339 160.667H303.114V159.807H307.339V160.667ZM298.888 160.667H294.662V159.807H298.888V160.667ZM290.437 160.667H286.211V159.807H290.437V160.667ZM281.985 160.667H277.76V159.807H281.985V160.667ZM273.534 160.667H269.308V159.807H273.534V160.667ZM265.083 160.667H260.857V159.807H265.083V160.667ZM256.631 160.667H252.406V159.807H256.631V160.667ZM248.18 160.667H243.954V159.807H248.18V160.667ZM239.729 160.667H235.503V159.807H239.729V160.667ZM231.277 160.667H227.052V159.807H231.277V160.667ZM222.826 160.667H218.6V159.807H222.826V160.667ZM214.375 160.667H210.149V159.807H214.375V160.667ZM205.923 160.667H201.698V159.807H205.923V160.667ZM197.472 160.667H193.246V159.807H197.472V160.667ZM189.021 160.667H184.795V159.807H189.021V160.667ZM180.569 160.667H176.344V159.807H180.569V160.667ZM172.118 160.667H167.892V159.807H172.118V160.667ZM163.667 160.667H159.441V159.807H163.667V160.667ZM155.215 160.667H150.99V159.807H155.215V160.667ZM146.764 160.667H142.538V159.807H146.764V160.667ZM138.313 160.667H134.087V159.807H138.313V160.667ZM129.862 160.667H125.636V159.807H129.862V160.667ZM121.41 160.667H117.185V159.807H121.41V160.667ZM112.959 160.667H108.733V159.807H112.959V160.667ZM104.508 160.667H100.282V159.807H104.508V160.667ZM96.0562 160.667H91.8306V159.807H96.0562V160.667Z" fill="#BA253E"/>
<path d="M423.572 159.807H421.432V160.667H423.572V159.807Z" fill="#BA253E"/>
<path d="M87.5866 187.264H85.4463V188.124H87.5866V187.264Z" fill="#BA253E"/>
<path d="M417.206 188.106H412.981V187.246H417.206V188.106ZM408.755 188.106H404.529V187.246H408.755V188.106ZM400.304 188.106H396.078V187.246H400.304V188.106ZM391.852 188.106H387.627V187.246H391.852V188.106ZM383.401 188.106H379.175V187.246H383.401V188.106ZM374.95 188.106H370.724V187.246H374.95V188.106ZM366.498 188.106H362.273V187.246H366.498V188.106ZM358.047 188.106H353.822V187.246H358.047V188.106ZM349.596 188.106H345.37V187.246H349.596V188.106ZM341.145 188.106H336.919V187.246H341.145V188.106ZM332.693 188.106H328.468V187.246H332.693V188.106ZM324.242 188.106H320.016V187.246H324.242V188.106ZM315.791 188.106H311.565V187.246H315.791V188.106ZM307.339 188.106H303.114V187.246H307.339V188.106ZM298.888 188.106H294.662V187.246H298.888V188.106ZM290.437 188.106H286.211V187.246H290.437V188.106ZM281.985 188.106H277.76V187.246H281.985V188.106ZM273.534 188.106H269.308V187.246H273.534V188.106ZM265.083 188.106H260.857V187.246H265.083V188.106ZM256.631 188.106H252.406V187.246H256.631V188.106ZM248.18 188.106H243.954V187.246H248.18V188.106ZM239.729 188.106H235.503V187.246H239.729V188.106ZM231.277 188.106H227.052V187.246H231.277V188.106ZM222.826 188.106H218.6V187.246H222.826V188.106ZM214.375 188.106H210.149V187.246H214.375V188.106ZM205.923 188.106H201.698V187.246H205.923V188.106ZM197.472 188.106H193.246V187.246H197.472V188.106ZM189.021 188.106H184.795V187.246H189.021V188.106ZM180.569 188.106H176.344V187.246H180.569V188.106ZM172.118 188.106H167.892V187.246H172.118V188.106ZM163.667 188.106H159.441V187.246H163.667V188.106ZM155.215 188.106H150.99V187.246H155.215V188.106ZM146.764 188.106H142.538V187.246H146.764V188.106ZM138.313 188.106H134.087V187.246H138.313V188.106ZM129.862 188.106H125.636V187.246H129.862V188.106ZM121.41 188.106H117.185V187.246H121.41V188.106ZM112.959 188.106H108.733V187.246H112.959V188.106ZM104.508 188.106H100.282V187.246H104.508V188.106ZM96.0562 188.106H91.8306V187.246H96.0562V188.106Z" fill="#BA253E"/>
<path d="M423.572 187.264H421.432V188.124H423.572V187.264Z" fill="#BA253E"/>
<path d="M87.5866 214.704H85.4463V215.564H87.5866V214.704Z" fill="#BA253E"/>
<path d="M417.206 215.564H412.981V214.704H417.206V215.564ZM408.755 215.564H404.529V214.704H408.755V215.564ZM400.304 215.564H396.078V214.704H400.304V215.564ZM391.852 215.564H387.627V214.704H391.852V215.564ZM383.401 215.564H379.175V214.704H383.401V215.564ZM374.95 215.564H370.724V214.704H374.95V215.564ZM366.498 215.564H362.273V214.704H366.498V215.564ZM358.047 215.564H353.822V214.704H358.047V215.564ZM349.596 215.564H345.37V214.704H349.596V215.564ZM341.145 215.564H336.919V214.704H341.145V215.564ZM332.693 215.564H328.468V214.704H332.693V215.564ZM324.242 215.564H320.016V214.704H324.242V215.564ZM315.791 215.564H311.565V214.704H315.791V215.564ZM307.339 215.564H303.114V214.704H307.339V215.564ZM298.888 215.564H294.662V214.704H298.888V215.564ZM290.437 215.564H286.211V214.704H290.437V215.564ZM281.985 215.564H277.76V214.704H281.985V215.564ZM273.534 215.564H269.308V214.704H273.534V215.564ZM265.083 215.564H260.857V214.704H265.083V215.564ZM256.631 215.564H252.406V214.704H256.631V215.564ZM248.18 215.564H243.954V214.704H248.18V215.564ZM239.729 215.564H235.503V214.704H239.729V215.564ZM231.277 215.564H227.052V214.704H231.277V215.564ZM222.826 215.564H218.6V214.704H222.826V215.564ZM214.375 215.564H210.149V214.704H214.375V215.564ZM205.923 215.564H201.698V214.704H205.923V215.564ZM197.472 215.564H193.246V214.704H197.472V215.564ZM189.021 215.564H184.795V214.704H189.021V215.564ZM180.569 215.564H176.344V214.704H180.569V215.564ZM172.118 215.564H167.892V214.704H172.118V215.564ZM163.667 215.564H159.441V214.704H163.667V215.564ZM155.215 215.564H150.99V214.704H155.215V215.564ZM146.764 215.564H142.538V214.704H146.764V215.564ZM138.313 215.564H134.087V214.704H138.313V215.564ZM129.862 215.564H125.636V214.704H129.862V215.564ZM121.41 215.564H117.185V214.704H121.41V215.564ZM112.959 215.564H108.733V214.704H112.959V215.564ZM104.508 215.564H100.282V214.704H104.508V215.564ZM96.0562 215.564H91.8306V214.704H96.0562V215.564Z" fill="#BA253E"/>
<path d="M423.572 214.704H421.432V215.564H423.572V214.704Z" fill="#BA253E"/>
<path d="M87.5866 242.161H85.4463V243.021H87.5866V242.161Z" fill="#BA253E"/>
<path d="M417.206 243.003H412.981V242.143H417.206V243.003ZM408.755 243.003H404.529V242.143H408.755V243.003ZM400.304 243.003H396.078V242.143H400.304V243.003ZM391.852 243.003H387.627V242.143H391.852V243.003ZM383.401 243.003H379.175V242.143H383.401V243.003ZM374.95 243.003H370.724V242.143H374.95V243.003ZM366.498 243.003H362.273V242.143H366.498V243.003ZM358.047 243.003H353.822V242.143H358.047V243.003ZM349.596 243.003H345.37V242.143H349.596V243.003ZM341.145 243.003H336.919V242.143H341.145V243.003ZM332.693 243.003H328.468V242.143H332.693V243.003ZM324.242 243.003H320.016V242.143H324.242V243.003ZM315.791 243.003H311.565V242.143H315.791V243.003ZM307.339 243.003H303.114V242.143H307.339V243.003ZM298.888 243.003H294.662V242.143H298.888V243.003ZM290.437 243.003H286.211V242.143H290.437V243.003ZM281.985 243.003H277.76V242.143H281.985V243.003ZM273.534 243.003H269.308V242.143H273.534V243.003ZM265.083 243.003H260.857V242.143H265.083V243.003ZM256.631 243.003H252.406V242.143H256.631V243.003ZM248.18 243.003H243.954V242.143H248.18V243.003ZM239.729 243.003H235.503V242.143H239.729V243.003ZM231.277 243.003H227.052V242.143H231.277V243.003ZM222.826 243.003H218.6V242.143H222.826V243.003ZM214.375 243.003H210.149V242.143H214.375V243.003ZM205.923 243.003H201.698V242.143H205.923V243.003ZM197.472 243.003H193.246V242.143H197.472V243.003ZM189.021 243.003H184.795V242.143H189.021V243.003ZM180.569 243.003H176.344V242.143H180.569V243.003ZM172.118 243.003H167.892V242.143H172.118V243.003ZM163.667 243.003H159.441V242.143H163.667V243.003ZM155.215 243.003H150.99V242.143H155.215V243.003ZM146.764 243.003H142.538V242.143H146.764V243.003ZM138.313 243.003H134.087V242.143H138.313V243.003ZM129.862 243.003H125.636V242.143H129.862V243.003ZM121.41 243.003H117.185V242.143H121.41V243.003ZM112.959 243.003H108.733V242.143H112.959V243.003ZM104.508 243.003H100.282V242.143H104.508V243.003ZM96.0562 243.003H91.8306V242.143H96.0562V243.003Z" fill="#BA253E"/>
<path d="M423.572 242.161H421.432V243.021H423.572V242.161Z" fill="#BA253E"/>
<path d="M87.5866 269.601H85.4463V270.461H87.5866V269.601Z" fill="#BA253E"/>
<path d="M417.206 270.461H412.981V269.601H417.206V270.461ZM408.755 270.461H404.529V269.601H408.755V270.461ZM400.304 270.461H396.078V269.601H400.304V270.461ZM391.852 270.461H387.627V269.601H391.852V270.461ZM383.401 270.461H379.175V269.601H383.401V270.461ZM374.95 270.461H370.724V269.601H374.95V270.461ZM366.498 270.461H362.273V269.601H366.498V270.461ZM358.047 270.461H353.822V269.601H358.047V270.461ZM349.596 270.461H345.37V269.601H349.596V270.461ZM341.145 270.461H336.919V269.601H341.145V270.461ZM332.693 270.461H328.468V269.601H332.693V270.461ZM324.242 270.461H320.016V269.601H324.242V270.461ZM315.791 270.461H311.565V269.601H315.791V270.461ZM307.339 270.461H303.114V269.601H307.339V270.461ZM298.888 270.461H294.662V269.601H298.888V270.461ZM290.437 270.461H286.211V269.601H290.437V270.461ZM281.985 270.461H277.76V269.601H281.985V270.461ZM273.534 270.461H269.308V269.601H273.534V270.461ZM265.083 270.461H260.857V269.601H265.083V270.461ZM256.631 270.461H252.406V269.601H256.631V270.461ZM248.18 270.461H243.954V269.601H248.18V270.461ZM239.729 270.461H235.503V269.601H239.729V270.461ZM231.277 270.461H227.052V269.601H231.277V270.461ZM222.826 270.461H218.6V269.601H222.826V270.461ZM214.375 270.461H210.149V269.601H214.375V270.461ZM205.923 270.461H201.698V269.601H205.923V270.461ZM197.472 270.461H193.246V269.601H197.472V270.461ZM189.021 270.461H184.795V269.601H189.021V270.461ZM180.569 270.461H176.344V269.601H180.569V270.461ZM172.118 270.461H167.892V269.601H172.118V270.461ZM163.667 270.461H159.441V269.601H163.667V270.461ZM155.215 270.461H150.99V269.601H155.215V270.461ZM146.764 270.461H142.538V269.601H146.764V270.461ZM138.313 270.461H134.087V269.601H138.313V270.461ZM129.862 270.461H125.636V269.601H129.862V270.461ZM121.41 270.461H117.185V269.601H121.41V270.461ZM112.959 270.461H108.733V269.601H112.959V270.461ZM104.508 270.461H100.282V269.601H104.508V270.461ZM96.0562 270.461H91.8306V269.601H96.0562V270.461Z" fill="#BA253E"/>
<path d="M423.572 269.601H421.432V270.461H423.572V269.601Z" fill="#BA253E"/>
<path d="M87.5866 297.058H85.4463V297.918H87.5866V297.058Z" fill="#BA253E"/>
<path d="M417.206 297.918H412.981V297.058H417.206V297.918ZM408.755 297.918H404.529V297.058H408.755V297.918ZM400.304 297.918H396.078V297.058H400.304V297.918ZM391.852 297.918H387.627V297.058H391.852V297.918ZM383.401 297.918H379.175V297.058H383.401V297.918ZM374.95 297.918H370.724V297.058H374.95V297.918ZM366.498 297.918H362.273V297.058H366.498V297.918ZM358.047 297.918H353.822V297.058H358.047V297.918ZM349.596 297.918H345.37V297.058H349.596V297.918ZM341.145 297.918H336.919V297.058H341.145V297.918ZM332.693 297.918H328.468V297.058H332.693V297.918ZM324.242 297.918H320.016V297.058H324.242V297.918ZM315.791 297.918H311.565V297.058H315.791V297.918ZM307.339 297.918H303.114V297.058H307.339V297.918ZM298.888 297.918H294.662V297.058H298.888V297.918ZM290.437 297.918H286.211V297.058H290.437V297.918ZM281.985 297.918H277.76V297.058H281.985V297.918ZM273.534 297.918H269.308V297.058H273.534V297.918ZM265.083 297.918H260.857V297.058H265.083V297.918ZM256.631 297.918H252.406V297.058H256.631V297.918ZM248.18 297.918H243.954V297.058H248.18V297.918ZM239.729 297.918H235.503V297.058H239.729V297.918ZM231.277 297.918H227.052V297.058H231.277V297.918ZM222.826 297.918H218.6V297.058H222.826V297.918ZM214.375 297.918H210.149V297.058H214.375V297.918ZM205.923 297.918H201.698V297.058H205.923V297.918ZM197.472 297.918H193.246V297.058H197.472V297.918ZM189.021 297.918H184.795V297.058H189.021V297.918ZM180.569 297.918H176.344V297.058H180.569V297.918ZM172.118 297.918H167.892V297.058H172.118V297.918ZM163.667 297.918H159.441V297.058H163.667V297.918ZM155.215 297.918H150.99V297.058H155.215V297.918ZM146.764 297.918H142.538V297.058H146.764V297.918ZM138.313 297.918H134.087V297.058H138.313V297.918ZM129.862 297.918H125.636V297.058H129.862V297.918ZM121.41 297.918H117.185V297.058H121.41V297.918ZM112.959 297.918H108.733V297.058H112.959V297.918ZM104.508 297.918H100.282V297.058H104.508V297.918ZM96.0562 297.918H91.8306V297.058H96.0562V297.918Z" fill="#BA253E"/>
<path d="M423.572 297.058H421.432V297.918H423.572V297.058Z" fill="#BA253E"/>
<path d="M87.5866 324.498H85.4463V325.358H87.5866V324.498Z" fill="#BA253E"/>
<path d="M417.206 325.358H412.981V324.498H417.206V325.358ZM408.755 325.358H404.529V324.498H408.755V325.358ZM400.304 325.358H396.078V324.498H400.304V325.358ZM391.852 325.358H387.627V324.498H391.852V325.358ZM383.401 325.358H379.175V324.498H383.401V325.358ZM374.95 325.358H370.724V324.498H374.95V325.358ZM366.498 325.358H362.273V324.498H366.498V325.358ZM358.047 325.358H353.822V324.498H358.047V325.358ZM349.596 325.358H345.37V324.498H349.596V325.358ZM341.145 325.358H336.919V324.498H341.145V325.358ZM332.693 325.358H328.468V324.498H332.693V325.358ZM324.242 325.358H320.016V324.498H324.242V325.358ZM315.791 325.358H311.565V324.498H315.791V325.358ZM307.339 325.358H303.114V324.498H307.339V325.358ZM298.888 325.358H294.662V324.498H298.888V325.358ZM290.437 325.358H286.211V324.498H290.437V325.358ZM281.985 325.358H277.76V324.498H281.985V325.358ZM273.534 325.358H269.308V324.498H273.534V325.358ZM265.083 325.358H260.857V324.498H265.083V325.358ZM256.631 325.358H252.406V324.498H256.631V325.358ZM248.18 325.358H243.954V324.498H248.18V325.358ZM239.729 325.358H235.503V324.498H239.729V325.358ZM231.277 325.358H227.052V324.498H231.277V325.358ZM222.826 325.358H218.6V324.498H222.826V325.358ZM214.375 325.358H210.149V324.498H214.375V325.358ZM205.923 325.358H201.698V324.498H205.923V325.358ZM197.472 325.358H193.246V324.498H197.472V325.358ZM189.021 325.358H184.795V324.498H189.021V325.358ZM180.569 325.358H176.344V324.498H180.569V325.358ZM172.118 325.358H167.892V324.498H172.118V325.358ZM163.667 325.358H159.441V324.498H163.667V325.358ZM155.215 325.358H150.99V324.498H155.215V325.358ZM146.764 325.358H142.538V324.498H146.764V325.358ZM138.313 325.358H134.087V324.498H138.313V325.358ZM129.862 325.358H125.636V324.498H129.862V325.358ZM121.41 325.358H117.185V324.498H121.41V325.358ZM112.959 325.358H108.733V324.498H112.959V325.358ZM104.508 325.358H100.282V324.498H104.508V325.358ZM96.0562 325.358H91.8306V324.498H96.0562V325.358Z" fill="#BA253E"/>
<path d="M423.572 324.498H421.432V325.358H423.572V324.498Z" fill="#BA253E"/>
<path d="M87.5866 351.955H85.4463V352.815H87.5866V351.955Z" fill="#BA253E"/>
<path d="M417.206 352.815H412.981V351.955H417.206V352.815ZM408.755 352.815H404.529V351.955H408.755V352.815ZM400.304 352.815H396.078V351.955H400.304V352.815ZM391.852 352.815H387.627V351.955H391.852V352.815ZM383.401 352.815H379.175V351.955H383.401V352.815ZM374.95 352.815H370.724V351.955H374.95V352.815ZM366.498 352.815H362.273V351.955H366.498V352.815ZM358.047 352.815H353.822V351.955H358.047V352.815ZM349.596 352.815H345.37V351.955H349.596V352.815ZM341.145 352.815H336.919V351.955H341.145V352.815ZM332.693 352.815H328.468V351.955H332.693V352.815ZM324.242 352.815H320.016V351.955H324.242V352.815ZM315.791 352.815H311.565V351.955H315.791V352.815ZM307.339 352.815H303.114V351.955H307.339V352.815ZM298.888 352.815H294.662V351.955H298.888V352.815ZM290.437 352.815H286.211V351.955H290.437V352.815ZM281.985 352.815H277.76V351.955H281.985V352.815ZM273.534 352.815H269.308V351.955H273.534V352.815ZM265.083 352.815H260.857V351.955H265.083V352.815ZM256.631 352.815H252.406V351.955H256.631V352.815ZM248.18 352.815H243.954V351.955H248.18V352.815ZM239.729 352.815H235.503V351.955H239.729V352.815ZM231.277 352.815H227.052V351.955H231.277V352.815ZM222.826 352.815H218.6V351.955H222.826V352.815ZM214.375 352.815H210.149V351.955H214.375V352.815ZM205.923 352.815H201.698V351.955H205.923V352.815ZM197.472 352.815H193.246V351.955H197.472V352.815ZM189.021 352.815H184.795V351.955H189.021V352.815ZM180.569 352.815H176.344V351.955H180.569V352.815ZM172.118 352.815H167.892V351.955H172.118V352.815ZM163.667 352.815H159.441V351.955H163.667V352.815ZM155.215 352.815H150.99V351.955H155.215V352.815ZM146.764 352.815H142.538V351.955H146.764V352.815ZM138.313 352.815H134.087V351.955H138.313V352.815ZM129.862 352.815H125.636V351.955H129.862V352.815ZM121.41 352.815H117.185V351.955H121.41V352.815ZM112.959 352.815H108.733V351.955H112.959V352.815ZM104.508 352.815H100.282V351.955H104.508V352.815ZM96.0562 352.815H91.8306V351.955H96.0562V352.815Z" fill="#BA253E"/>
<path d="M423.572 351.955H421.432V352.815H423.572V351.955Z" fill="#BA253E"/>
<path d="M87.5866 379.413H85.4463V380.273H87.5866V379.413Z" fill="#BA253E"/>
<path d="M417.206 380.255H412.981V379.395H417.206V380.255ZM408.755 380.255H404.529V379.395H408.755V380.255ZM400.304 380.255H396.078V379.395H400.304V380.255ZM391.852 380.255H387.627V379.395H391.852V380.255ZM383.401 380.255H379.175V379.395H383.401V380.255ZM374.95 380.255H370.724V379.395H374.95V380.255ZM366.498 380.255H362.273V379.395H366.498V380.255ZM358.047 380.255H353.822V379.395H358.047V380.255ZM349.596 380.255H345.37V379.395H349.596V380.255ZM341.145 380.255H336.919V379.395H341.145V380.255ZM332.693 380.255H328.468V379.395H332.693V380.255ZM324.242 380.255H320.016V379.395H324.242V380.255ZM315.791 380.255H311.565V379.395H315.791V380.255ZM307.339 380.255H303.114V379.395H307.339V380.255ZM298.888 380.255H294.662V379.395H298.888V380.255ZM290.437 380.255H286.211V379.395H290.437V380.255ZM281.985 380.255H277.76V379.395H281.985V380.255ZM273.534 380.255H269.308V379.395H273.534V380.255ZM265.083 380.255H260.857V379.395H265.083V380.255ZM256.631 380.255H252.406V379.395H256.631V380.255ZM248.18 380.255H243.954V379.395H248.18V380.255ZM239.729 380.255H235.503V379.395H239.729V380.255ZM231.277 380.255H227.052V379.395H231.277V380.255ZM222.826 380.255H218.6V379.395H222.826V380.255ZM214.375 380.255H210.149V379.395H214.375V380.255ZM205.923 380.255H201.698V379.395H205.923V380.255ZM197.472 380.255H193.246V379.395H197.472V380.255ZM189.021 380.255H184.795V379.395H189.021V380.255ZM180.569 380.255H176.344V379.395H180.569V380.255ZM172.118 380.255H167.892V379.395H172.118V380.255ZM163.667 380.255H159.441V379.395H163.667V380.255ZM155.215 380.255H150.99V379.395H155.215V380.255ZM146.764 380.255H142.538V379.395H146.764V380.255ZM138.313 380.255H134.087V379.395H138.313V380.255ZM129.862 380.255H125.636V379.395H129.862V380.255ZM121.41 380.255H117.185V379.395H121.41V380.255ZM112.959 380.255H108.733V379.395H112.959V380.255ZM104.508 380.255H100.282V379.395H104.508V380.255ZM96.0562 380.255H91.8306V379.395H96.0562V380.255Z" fill="#BA253E"/>
<path d="M423.572 379.413H421.432V380.273H423.572V379.413Z" fill="#BA253E"/>
<path d="M87.5866 406.852H85.4463V407.712H87.5866V406.852Z" fill="#BA253E"/>
<path d="M417.206 407.712H412.981V406.852H417.206V407.712ZM408.755 407.712H404.529V406.852H408.755V407.712ZM400.304 407.712H396.078V406.852H400.304V407.712ZM391.852 407.712H387.627V406.852H391.852V407.712ZM383.401 407.712H379.175V406.852H383.401V407.712ZM374.95 407.712H370.724V406.852H374.95V407.712ZM366.498 407.712H362.273V406.852H366.498V407.712ZM358.047 407.712H353.822V406.852H358.047V407.712ZM349.596 407.712H345.37V406.852H349.596V407.712ZM341.145 407.712H336.919V406.852H341.145V407.712ZM332.693 407.712H328.468V406.852H332.693V407.712ZM324.242 407.712H320.016V406.852H324.242V407.712ZM315.791 407.712H311.565V406.852H315.791V407.712ZM307.339 407.712H303.114V406.852H307.339V407.712ZM298.888 407.712H294.662V406.852H298.888V407.712ZM290.437 407.712H286.211V406.852H290.437V407.712ZM281.985 407.712H277.76V406.852H281.985V407.712ZM273.534 407.712H269.308V406.852H273.534V407.712ZM265.083 407.712H260.857V406.852H265.083V407.712ZM256.631 407.712H252.406V406.852H256.631V407.712ZM248.18 407.712H243.954V406.852H248.18V407.712ZM239.729 407.712H235.503V406.852H239.729V407.712ZM231.277 407.712H227.052V406.852H231.277V407.712ZM222.826 407.712H218.6V406.852H222.826V407.712ZM214.375 407.712H210.149V406.852H214.375V407.712ZM205.923 407.712H201.698V406.852H205.923V407.712ZM197.472 407.712H193.246V406.852H197.472V407.712ZM189.021 407.712H184.795V406.852H189.021V407.712ZM180.569 407.712H176.344V406.852H180.569V407.712ZM172.118 407.712H167.892V406.852H172.118V407.712ZM163.667 407.712H159.441V406.852H163.667V407.712ZM155.215 407.712H150.99V406.852H155.215V407.712ZM146.764 407.712H142.538V406.852H146.764V407.712ZM138.313 407.712H134.087V406.852H138.313V407.712ZM129.862 407.712H125.636V406.852H129.862V407.712ZM121.41 407.712H117.185V406.852H121.41V407.712ZM112.959 407.712H108.733V406.852H112.959V407.712ZM104.508 407.712H100.282V406.852H104.508V407.712ZM96.0562 407.712H91.8306V406.852H96.0562V407.712Z" fill="#BA253E"/>
<path d="M423.572 406.852H421.432V407.712H423.572V406.852Z" fill="#BA253E"/>
<path d="M87.5866 434.31H85.4463V435.17H87.5866V434.31Z" fill="#BA253E"/>
<path d="M417.206 435.152H412.981V434.292H417.206V435.152ZM408.755 435.152H404.529V434.292H408.755V435.152ZM400.304 435.152H396.078V434.292H400.304V435.152ZM391.852 435.152H387.627V434.292H391.852V435.152ZM383.401 435.152H379.175V434.292H383.401V435.152ZM374.95 435.152H370.724V434.292H374.95V435.152ZM366.498 435.152H362.273V434.292H366.498V435.152ZM358.047 435.152H353.822V434.292H358.047V435.152ZM349.596 435.152H345.37V434.292H349.596V435.152ZM341.145 435.152H336.919V434.292H341.145V435.152ZM332.693 435.152H328.468V434.292H332.693V435.152ZM324.242 435.152H320.016V434.292H324.242V435.152ZM315.791 435.152H311.565V434.292H315.791V435.152ZM307.339 435.152H303.114V434.292H307.339V435.152ZM298.888 435.152H294.662V434.292H298.888V435.152ZM290.437 435.152H286.211V434.292H290.437V435.152ZM281.985 435.152H277.76V434.292H281.985V435.152ZM273.534 435.152H269.308V434.292H273.534V435.152ZM265.083 435.152H260.857V434.292H265.083V435.152ZM256.631 435.152H252.406V434.292H256.631V435.152ZM248.18 435.152H243.954V434.292H248.18V435.152ZM239.729 435.152H235.503V434.292H239.729V435.152ZM231.277 435.152H227.052V434.292H231.277V435.152ZM222.826 435.152H218.6V434.292H222.826V435.152ZM214.375 435.152H210.149V434.292H214.375V435.152ZM205.923 435.152H201.698V434.292H205.923V435.152ZM197.472 435.152H193.246V434.292H197.472V435.152ZM189.021 435.152H184.795V434.292H189.021V435.152ZM180.569 435.152H176.344V434.292H180.569V435.152ZM172.118 435.152H167.892V434.292H172.118V435.152ZM163.667 435.152H159.441V434.292H163.667V435.152ZM155.215 435.152H150.99V434.292H155.215V435.152ZM146.764 435.152H142.538V434.292H146.764V435.152ZM138.313 435.152H134.087V434.292H138.313V435.152ZM129.862 435.152H125.636V434.292H129.862V435.152ZM121.41 435.152H117.185V434.292H121.41V435.152ZM112.959 435.152H108.733V434.292H112.959V435.152ZM104.508 435.152H100.282V434.292H104.508V435.152ZM96.0562 435.152H91.8306V434.292H96.0562V435.152Z" fill="#BA253E"/>
<path d="M423.572 434.31H421.432V435.17H423.572V434.31Z" fill="#BA253E"/>
<path d="M87.5866 461.749H85.4463V462.609H87.5866V461.749Z" fill="#BA253E"/>
<path d="M417.206 462.609H412.981V461.749H417.206V462.609ZM408.755 462.609H404.529V461.749H408.755V462.609ZM400.304 462.609H396.078V461.749H400.304V462.609ZM391.852 462.609H387.627V461.749H391.852V462.609ZM383.401 462.609H379.175V461.749H383.401V462.609ZM374.95 462.609H370.724V461.749H374.95V462.609ZM366.498 462.609H362.273V461.749H366.498V462.609ZM358.047 462.609H353.822V461.749H358.047V462.609ZM349.596 462.609H345.37V461.749H349.596V462.609ZM341.145 462.609H336.919V461.749H341.145V462.609ZM332.693 462.609H328.468V461.749H332.693V462.609ZM324.242 462.609H320.016V461.749H324.242V462.609ZM315.791 462.609H311.565V461.749H315.791V462.609ZM307.339 462.609H303.114V461.749H307.339V462.609ZM298.888 462.609H294.662V461.749H298.888V462.609ZM290.437 462.609H286.211V461.749H290.437V462.609ZM281.985 462.609H277.76V461.749H281.985V462.609ZM273.534 462.609H269.308V461.749H273.534V462.609ZM265.083 462.609H260.857V461.749H265.083V462.609ZM256.631 462.609H252.406V461.749H256.631V462.609ZM248.18 462.609H243.954V461.749H248.18V462.609ZM239.729 462.609H235.503V461.749H239.729V462.609ZM231.277 462.609H227.052V461.749H231.277V462.609ZM222.826 462.609H218.6V461.749H222.826V462.609ZM214.375 462.609H210.149V461.749H214.375V462.609ZM205.923 462.609H201.698V461.749H205.923V462.609ZM197.472 462.609H193.246V461.749H197.472V462.609ZM189.021 462.609H184.795V461.749H189.021V462.609ZM180.569 462.609H176.344V461.749H180.569V462.609ZM172.118 462.609H167.892V461.749H172.118V462.609ZM163.667 462.609H159.441V461.749H163.667V462.609ZM155.215 462.609H150.99V461.749H155.215V462.609ZM146.764 462.609H142.538V461.749H146.764V462.609ZM138.313 462.609H134.087V461.749H138.313V462.609ZM129.862 462.609H125.636V461.749H129.862V462.609ZM121.41 462.609H117.185V461.749H121.41V462.609ZM112.959 462.609H108.733V461.749H112.959V462.609ZM104.508 462.609H100.282V461.749H104.508V462.609ZM96.0562 462.609H91.8306V461.749H96.0562V462.609Z" fill="#BA253E"/>
<path d="M423.572 461.749H421.432V462.609H423.572V461.749Z" fill="#BA253E"/>
<path d="M87.5866 489.207H85.4463V490.067H87.5866V489.207Z" fill="#BA253E"/>
<path d="M417.206 490.049H412.981V489.189H417.206V490.049ZM408.755 490.049H404.529V489.189H408.755V490.049ZM400.304 490.049H396.078V489.189H400.304V490.049ZM391.852 490.049H387.627V489.189H391.852V490.049ZM383.401 490.049H379.175V489.189H383.401V490.049ZM374.95 490.049H370.724V489.189H374.95V490.049ZM366.498 490.049H362.273V489.189H366.498V490.049ZM358.047 490.049H353.822V489.189H358.047V490.049ZM349.596 490.049H345.37V489.189H349.596V490.049ZM341.145 490.049H336.919V489.189H341.145V490.049ZM332.693 490.049H328.468V489.189H332.693V490.049ZM324.242 490.049H320.016V489.189H324.242V490.049ZM315.791 490.049H311.565V489.189H315.791V490.049ZM307.339 490.049H303.114V489.189H307.339V490.049ZM298.888 490.049H294.662V489.189H298.888V490.049ZM290.437 490.049H286.211V489.189H290.437V490.049ZM281.985 490.049H277.76V489.189H281.985V490.049ZM273.534 490.049H269.308V489.189H273.534V490.049ZM265.083 490.049H260.857V489.189H265.083V490.049ZM256.631 490.049H252.406V489.189H256.631V490.049ZM248.18 490.049H243.954V489.189H248.18V490.049ZM239.729 490.049H235.503V489.189H239.729V490.049ZM231.277 490.049H227.052V489.189H231.277V490.049ZM222.826 490.049H218.6V489.189H222.826V490.049ZM214.375 490.049H210.149V489.189H214.375V490.049ZM205.923 490.049H201.698V489.189H205.923V490.049ZM197.472 490.049H193.246V489.189H197.472V490.049ZM189.021 490.049H184.795V489.189H189.021V490.049ZM180.569 490.049H176.344V489.189H180.569V490.049ZM172.118 490.049H167.892V489.189H172.118V490.049ZM163.667 490.049H159.441V489.189H163.667V490.049ZM155.215 490.049H150.99V489.189H155.215V490.049ZM146.764 490.049H142.538V489.189H146.764V490.049ZM138.313 490.049H134.087V489.189H138.313V490.049ZM129.862 490.049H125.636V489.189H129.862V490.049ZM121.41 490.049H117.185V489.189H121.41V490.049ZM112.959 490.049H108.733V489.189H112.959V490.049ZM104.508 490.049H100.282V489.189H104.508V490.049ZM96.0562 490.049H91.8306V489.189H96.0562V490.049Z" fill="#BA253E"/>
<path d="M423.572 489.207H421.432V490.067H423.572V489.207Z" fill="#BA253E"/>
<path d="M87.5866 516.646H85.4463V517.506H87.5866V516.646Z" fill="#BA253E"/>
<path d="M417.206 517.506H412.981V516.646H417.206V517.506ZM408.755 517.506H404.529V516.646H408.755V517.506ZM400.304 517.506H396.078V516.646H400.304V517.506ZM391.852 517.506H387.627V516.646H391.852V517.506ZM383.401 517.506H379.175V516.646H383.401V517.506ZM374.95 517.506H370.724V516.646H374.95V517.506ZM366.498 517.506H362.273V516.646H366.498V517.506ZM358.047 517.506H353.822V516.646H358.047V517.506ZM349.596 517.506H345.37V516.646H349.596V517.506ZM341.145 517.506H336.919V516.646H341.145V517.506ZM332.693 517.506H328.468V516.646H332.693V517.506ZM324.242 517.506H320.016V516.646H324.242V517.506ZM315.791 517.506H311.565V516.646H315.791V517.506ZM307.339 517.506H303.114V516.646H307.339V517.506ZM298.888 517.506H294.662V516.646H298.888V517.506ZM290.437 517.506H286.211V516.646H290.437V517.506ZM281.985 517.506H277.76V516.646H281.985V517.506ZM273.534 517.506H269.308V516.646H273.534V517.506ZM265.083 517.506H260.857V516.646H265.083V517.506ZM256.631 517.506H252.406V516.646H256.631V517.506ZM248.18 517.506H243.954V516.646H248.18V517.506ZM239.729 517.506H235.503V516.646H239.729V517.506ZM231.277 517.506H227.052V516.646H231.277V517.506ZM222.826 517.506H218.6V516.646H222.826V517.506ZM214.375 517.506H210.149V516.646H214.375V517.506ZM205.923 517.506H201.698V516.646H205.923V517.506ZM197.472 517.506H193.246V516.646H197.472V517.506ZM189.021 517.506H184.795V516.646H189.021V517.506ZM180.569 517.506H176.344V516.646H180.569V517.506ZM172.118 517.506H167.892V516.646H172.118V517.506ZM163.667 517.506H159.441V516.646H163.667V517.506ZM155.215 517.506H150.99V516.646H155.215V517.506ZM146.764 517.506H142.538V516.646H146.764V517.506ZM138.313 517.506H134.087V516.646H138.313V517.506ZM129.862 517.506H125.636V516.646H129.862V517.506ZM121.41 517.506H117.185V516.646H121.41V517.506ZM112.959 517.506H108.733V516.646H112.959V517.506ZM104.508 517.506H100.282V516.646H104.508V517.506ZM96.0562 517.506H91.8306V516.646H96.0562V517.506Z" fill="#BA253E"/>
<path d="M423.572 516.646H421.432V517.506H423.572V516.646Z" fill="#BA253E"/>
<path d="M87.5866 544.104H85.4463V544.964H87.5866V544.104Z" fill="#BA253E"/>
<path d="M417.206 544.964H412.981V544.104H417.206V544.964ZM408.755 544.964H404.529V544.104H408.755V544.964ZM400.304 544.964H396.078V544.104H400.304V544.964ZM391.852 544.964H387.627V544.104H391.852V544.964ZM383.401 544.964H379.175V544.104H383.401V544.964ZM374.95 544.964H370.724V544.104H374.95V544.964ZM366.498 544.964H362.273V544.104H366.498V544.964ZM358.047 544.964H353.822V544.104H358.047V544.964ZM349.596 544.964H345.37V544.104H349.596V544.964ZM341.145 544.964H336.919V544.104H341.145V544.964ZM332.693 544.964H328.468V544.104H332.693V544.964ZM324.242 544.964H320.016V544.104H324.242V544.964ZM315.791 544.964H311.565V544.104H315.791V544.964ZM307.339 544.964H303.114V544.104H307.339V544.964ZM298.888 544.964H294.662V544.104H298.888V544.964ZM290.437 544.964H286.211V544.104H290.437V544.964ZM281.985 544.964H277.76V544.104H281.985V544.964ZM273.534 544.964H269.308V544.104H273.534V544.964ZM265.083 544.964H260.857V544.104H265.083V544.964ZM256.631 544.964H252.406V544.104H256.631V544.964ZM248.18 544.964H243.954V544.104H248.18V544.964ZM239.729 544.964H235.503V544.104H239.729V544.964ZM231.277 544.964H227.052V544.104H231.277V544.964ZM222.826 544.964H218.6V544.104H222.826V544.964ZM214.375 544.964H210.149V544.104H214.375V544.964ZM205.923 544.964H201.698V544.104H205.923V544.964ZM197.472 544.964H193.246V544.104H197.472V544.964ZM189.021 544.964H184.795V544.104H189.021V544.964ZM180.569 544.964H176.344V544.104H180.569V544.964ZM172.118 544.964H167.892V544.104H172.118V544.964ZM163.667 544.964H159.441V544.104H163.667V544.964ZM155.215 544.964H150.99V544.104H155.215V544.964ZM146.764 544.964H142.538V544.104H146.764V544.964ZM138.313 544.964H134.087V544.104H138.313V544.964ZM129.862 544.964H125.636V544.104H129.862V544.964ZM121.41 544.964H117.185V544.104H121.41V544.964ZM112.959 544.964H108.733V544.104H112.959V544.964ZM104.508 544.964H100.282V544.104H104.508V544.964ZM96.0562 544.964H91.8306V544.104H96.0562V544.964Z" fill="#BA253E"/>
<path d="M423.572 544.104H421.432V544.964H423.572V544.104Z" fill="#BA253E"/>
<path d="M87.5866 571.543H85.4463V572.403H87.5866V571.543Z" fill="#BA253E"/>
<path d="M417.206 572.403H412.981V571.543H417.206V572.403ZM408.755 572.403H404.529V571.543H408.755V572.403ZM400.304 572.403H396.078V571.543H400.304V572.403ZM391.852 572.403H387.627V571.543H391.852V572.403ZM383.401 572.403H379.175V571.543H383.401V572.403ZM374.95 572.403H370.724V571.543H374.95V572.403ZM366.498 572.403H362.273V571.543H366.498V572.403ZM358.047 572.403H353.822V571.543H358.047V572.403ZM349.596 572.403H345.37V571.543H349.596V572.403ZM341.145 572.403H336.919V571.543H341.145V572.403ZM332.693 572.403H328.468V571.543H332.693V572.403ZM324.242 572.403H320.016V571.543H324.242V572.403ZM315.791 572.403H311.565V571.543H315.791V572.403ZM307.339 572.403H303.114V571.543H307.339V572.403ZM298.888 572.403H294.662V571.543H298.888V572.403ZM290.437 572.403H286.211V571.543H290.437V572.403ZM281.985 572.403H277.76V571.543H281.985V572.403ZM273.534 572.403H269.308V571.543H273.534V572.403ZM265.083 572.403H260.857V571.543H265.083V572.403ZM256.631 572.403H252.406V571.543H256.631V572.403ZM248.18 572.403H243.954V571.543H248.18V572.403ZM239.729 572.403H235.503V571.543H239.729V572.403ZM231.277 572.403H227.052V571.543H231.277V572.403ZM222.826 572.403H218.6V571.543H222.826V572.403ZM214.375 572.403H210.149V571.543H214.375V572.403ZM205.923 572.403H201.698V571.543H205.923V572.403ZM197.472 572.403H193.246V571.543H197.472V572.403ZM189.021 572.403H184.795V571.543H189.021V572.403ZM180.569 572.403H176.344V571.543H180.569V572.403ZM172.118 572.403H167.892V571.543H172.118V572.403ZM163.667 572.403H159.441V571.543H163.667V572.403ZM155.215 572.403H150.99V571.543H155.215V572.403ZM146.764 572.403H142.538V571.543H146.764V572.403ZM138.313 572.403H134.087V571.543H138.313V572.403ZM129.862 572.403H125.636V571.543H129.862V572.403ZM121.41 572.403H117.185V571.543H121.41V572.403ZM112.959 572.403H108.733V571.543H112.959V572.403ZM104.508 572.403H100.282V571.543H104.508V572.403ZM96.0562 572.403H91.8306V571.543H96.0562V572.403Z" fill="#BA253E"/>
<path d="M423.572 571.543H421.432V572.403H423.572V571.543Z" fill="#BA253E"/>
<path d="M87.5866 599.001H85.4463V599.861H87.5866V599.001Z" fill="#BA253E"/>
<path d="M417.206 599.861H412.981V599.001H417.206V599.861ZM408.755 599.861H404.529V599.001H408.755V599.861ZM400.304 599.861H396.078V599.001H400.304V599.861ZM391.852 599.861H387.627V599.001H391.852V599.861ZM383.401 599.861H379.175V599.001H383.401V599.861ZM374.95 599.861H370.724V599.001H374.95V599.861ZM366.498 599.861H362.273V599.001H366.498V599.861ZM358.047 599.861H353.822V599.001H358.047V599.861ZM349.596 599.861H345.37V599.001H349.596V599.861ZM341.145 599.861H336.919V599.001H341.145V599.861ZM332.693 599.861H328.468V599.001H332.693V599.861ZM324.242 599.861H320.016V599.001H324.242V599.861ZM315.791 599.861H311.565V599.001H315.791V599.861ZM307.339 599.861H303.114V599.001H307.339V599.861ZM298.888 599.861H294.662V599.001H298.888V599.861ZM290.437 599.861H286.211V599.001H290.437V599.861ZM281.985 599.861H277.76V599.001H281.985V599.861ZM273.534 599.861H269.308V599.001H273.534V599.861ZM265.083 599.861H260.857V599.001H265.083V599.861ZM256.631 599.861H252.406V599.001H256.631V599.861ZM248.18 599.861H243.954V599.001H248.18V599.861ZM239.729 599.861H235.503V599.001H239.729V599.861ZM231.277 599.861H227.052V599.001H231.277V599.861ZM222.826 599.861H218.6V599.001H222.826V599.861ZM214.375 599.861H210.149V599.001H214.375V599.861ZM205.923 599.861H201.698V599.001H205.923V599.861ZM197.472 599.861H193.246V599.001H197.472V599.861ZM189.021 599.861H184.795V599.001H189.021V599.861ZM180.569 599.861H176.344V599.001H180.569V599.861ZM172.118 599.861H167.892V599.001H172.118V599.861ZM163.667 599.861H159.441V599.001H163.667V599.861ZM155.215 599.861H150.99V599.001H155.215V599.861ZM146.764 599.861H142.538V599.001H146.764V599.861ZM138.313 599.861H134.087V599.001H138.313V599.861ZM129.862 599.861H125.636V599.001H129.862V599.861ZM121.41 599.861H117.185V599.001H121.41V599.861ZM112.959 599.861H108.733V599.001H112.959V599.861ZM104.508 599.861H100.282V599.001H104.508V599.861ZM96.0562 599.861H91.8306V599.001H96.0562V599.861Z" fill="#BA253E"/>
<path d="M423.572 599.001H421.432V599.861H423.572V599.001Z" fill="#BA253E"/>
<path d="M87.5866 626.44H85.4463V627.3H87.5866V626.44Z" fill="#BA253E"/>
<path d="M417.206 627.3H412.981V626.44H417.206V627.3ZM408.755 627.3H404.529V626.44H408.755V627.3ZM400.304 627.3H396.078V626.44H400.304V627.3ZM391.852 627.3H387.627V626.44H391.852V627.3ZM383.401 627.3H379.175V626.44H383.401V627.3ZM374.95 627.3H370.724V626.44H374.95V627.3ZM366.498 627.3H362.273V626.44H366.498V627.3ZM358.047 627.3H353.822V626.44H358.047V627.3ZM349.596 627.3H345.37V626.44H349.596V627.3ZM341.145 627.3H336.919V626.44H341.145V627.3ZM332.693 627.3H328.468V626.44H332.693V627.3ZM324.242 627.3H320.016V626.44H324.242V627.3ZM315.791 627.3H311.565V626.44H315.791V627.3ZM307.339 627.3H303.114V626.44H307.339V627.3ZM298.888 627.3H294.662V626.44H298.888V627.3ZM290.437 627.3H286.211V626.44H290.437V627.3ZM281.985 627.3H277.76V626.44H281.985V627.3ZM273.534 627.3H269.308V626.44H273.534V627.3ZM265.083 627.3H260.857V626.44H265.083V627.3ZM256.631 627.3H252.406V626.44H256.631V627.3ZM248.18 627.3H243.954V626.44H248.18V627.3ZM239.729 627.3H235.503V626.44H239.729V627.3ZM231.277 627.3H227.052V626.44H231.277V627.3ZM222.826 627.3H218.6V626.44H222.826V627.3ZM214.375 627.3H210.149V626.44H214.375V627.3ZM205.923 627.3H201.698V626.44H205.923V627.3ZM197.472 627.3H193.246V626.44H197.472V627.3ZM189.021 627.3H184.795V626.44H189.021V627.3ZM180.569 627.3H176.344V626.44H180.569V627.3ZM172.118 627.3H167.892V626.44H172.118V627.3ZM163.667 627.3H159.441V626.44H163.667V627.3ZM155.215 627.3H150.99V626.44H155.215V627.3ZM146.764 627.3H142.538V626.44H146.764V627.3ZM138.313 627.3H134.087V626.44H138.313V627.3ZM129.862 627.3H125.636V626.44H129.862V627.3ZM121.41 627.3H117.185V626.44H121.41V627.3ZM112.959 627.3H108.733V626.44H112.959V627.3ZM104.508 627.3H100.282V626.44H104.508V627.3ZM96.0562 627.3H91.8306V626.44H96.0562V627.3Z" fill="#BA253E"/>
<path d="M423.572 626.44H421.432V627.3H423.572V626.44Z" fill="#BA253E"/>
<path d="M56.7627 623.934C55.1346 623.934 53.4151 623.751 51.6224 623.367C45.9699 622.178 39.9698 619.068 35.5612 615.081C28.0245 608.257 26.4513 600.3 31.4453 594.336C35.1953 589.855 39.4027 587.934 43.9759 588.647C57.0371 590.641 67.1896 614.294 68.2872 616.983L68.9275 618.556L67.7384 619.764C65.0494 622.508 61.2444 623.934 56.7444 623.934H56.7627ZM42.2198 593.641C39.8783 593.641 37.6283 594.958 35.3783 597.629C30.9331 602.952 36.4393 608.952 39.0186 611.276C45.9333 617.55 57.0005 621.026 62.8176 617.221C59.4517 609.757 51.2016 594.922 43.2076 593.696C42.8784 593.641 42.5491 593.623 42.2198 593.623V593.641Z" fill="#7C4572"/>
<path d="M72.074 620.367C70.6838 620.367 69.3118 620.148 67.9399 619.709L66.3301 619.178L66.1837 617.495C65.9459 614.587 64.1715 588.922 74.8729 581.166C78.6046 578.458 83.2327 578.239 88.6291 580.507C95.7999 583.525 98.0317 591.336 94.428 600.849C90.5316 611.166 81.1839 620.367 72.0558 620.367H72.074ZM71.196 615.19C78.1107 615.94 86.3608 607.782 89.6535 599.038C90.8792 595.782 93.0377 587.934 86.6535 585.227C82.9766 583.672 80.1229 583.708 77.9095 585.318C71.3606 590.056 70.7936 607.013 71.196 615.19Z" fill="#7C4572"/>
<path d="M123.12 626.089L21.9614 650.524L44.9967 745.886L146.156 721.451L123.12 626.089Z" fill="#DDB34B"/>
<mask id="mask1_116_457" style="mask-type:luminance" maskUnits="userSpaceOnUse" x="21" y="626" width="126" height="120">
<path d="M123.12 626.089L21.9614 650.524L44.9967 745.886L146.156 721.451L123.12 626.089Z" fill="white"/>
</mask>
<g mask="url(#mask1_116_457)">
<path d="M76.0707 609.371L54.5195 614.577L87.7689 752.224L109.32 747.018L76.0707 609.371Z" fill="#7C4572"/>
<g style="mix-blend-mode:multiply" opacity="0.3">
<path d="M154.992 670.785L18.1812 703.832L21.6517 718.2L158.462 685.152L154.992 670.785Z" fill="#AA8047"/>
</g>
<path d="M154.381 679.036L149.175 657.485L11.5283 690.735L16.7341 712.286L154.381 679.036Z" fill="#7C4572"/>
<g style="mix-blend-mode:multiply" opacity="0.3">
<path d="M141.831 616.319L5.02002 649.366L11.4285 675.896L148.239 642.849L141.831 616.319Z" fill="#AA8047"/>
</g>
</g>
<path d="M129.49 605.252L8.43359 634.494L15.6453 664.349L136.702 635.107L129.49 605.252Z" fill="#DDB34B"/>
<path d="M82.0451 612.314L51.3721 619.723L60.3835 657.029L91.0565 649.62L82.0451 612.314Z" fill="#7C4572"/>
<path d="M53.3788 184.667C53.3788 184.667 33.8786 146.983 16.9576 164.563C4.97578 177.002 41.3421 195.368 53.3788 184.667Z" fill="#3E434C"/>
<path d="M42.7139 187.374C42.7139 187.374 48.1286 144.166 69.8971 155.197C85.2997 163.008 57.586 193.521 42.7139 187.374Z" fill="#3E434C"/>
<path d="M102.572 192.645L-0.0419922 209.982L20.6752 332.599L123.289 315.262L102.572 192.645Z" fill="#80B4E3"/>
<mask id="mask2_116_457" style="mask-type:luminance" maskUnits="userSpaceOnUse" x="-1" y="192" width="125" height="141">
<path d="M102.572 192.645L-0.0419922 209.982L20.6752 332.599L123.289 315.262L102.572 192.645Z" fill="white"/>
</mask>
<g mask="url(#mask2_116_457)">
<path d="M31.0611 281.272L34.4269 286.924L40.9941 287.345L36.6587 292.302L38.2868 298.668L32.2318 296.089L26.6891 299.601L27.2744 293.052L22.2256 288.845L28.6281 287.381L31.0611 281.272Z" fill="white"/>
<path d="M100.739 291.735L104.105 297.388L110.654 297.808L106.337 302.748L107.965 309.132L101.91 306.534L96.3487 310.046L96.9524 303.498L91.8853 299.308L98.3061 297.845L100.739 291.735Z" fill="white"/>
<path d="M18.8596 238.631L22.2255 244.265L28.7927 244.704L24.4572 249.643L26.0853 256.027L20.0304 253.43L14.4693 256.942L15.073 250.393L10.0059 246.186L16.4267 244.741L18.8596 238.631Z" fill="white"/>
<path d="M73.1718 230.399L78.9707 233.472L84.8061 230.436L83.6719 236.911L88.3732 241.503L81.8609 242.436L78.9524 248.326L76.0438 242.418L69.5498 241.466L74.2694 236.893L73.1718 230.399Z" fill="white"/>
<path d="M84.6225 203.472L90.4396 206.545L96.2568 203.509L95.1409 209.984L99.8422 214.576L93.3299 215.509L90.403 221.399L87.5128 215.49L81.0005 214.539L85.7201 209.966L84.6225 203.472Z" fill="white"/>
<path d="M31.5551 220.521L37.3722 223.594L43.1894 220.539L42.0735 227.015L46.7565 231.625L40.2625 232.539L37.3357 238.43L34.4454 232.539L27.9331 231.57L32.6527 226.997L31.5551 220.521Z" fill="white"/>
<path d="M87.3116 266.893L88.6286 273.333L94.6836 275.912L88.9579 279.15L88.3725 285.699L83.5249 281.253L77.1224 282.735L79.8481 276.753L76.4639 271.119L82.9944 271.851L87.3116 266.893Z" fill="white"/>
<path d="M53.1953 248.985L54.5124 255.424L60.5491 258.003L54.8417 261.241L54.2563 267.79L49.4087 263.345L43.0062 264.826L45.7318 258.826L42.3477 253.192L48.8782 253.942L53.1953 248.985Z" fill="white"/>
<path d="M52.7202 314.876L54.0373 321.315L60.074 323.894L54.3666 327.132L53.7812 333.681L48.9336 329.236L42.5311 330.717L45.2567 324.736L41.8726 319.101L48.4031 319.833L52.7202 314.876Z" fill="white"/>
<path d="M116.05 255.808L117.367 262.247L123.404 264.808L117.696 268.046L117.111 274.595L112.263 270.168L105.861 271.631L108.586 265.65L105.202 260.015L111.733 260.765L116.05 255.808Z" fill="white"/>
<path d="M78.8246 333.461L67.7208 335.345L40.4644 175.447L51.5682 173.581L78.8246 333.461Z" fill="#3E434C"/>
<g style="mix-blend-mode:multiply" opacity="0.3">
<path d="M131.035 236.739L-7.74414 260.186L-6.04667 270.233L132.732 246.785L131.035 236.739Z" fill="#333A42"/>
</g>
<path d="M128.908 240.82L127.528 232.649L-12.0986 256.24L-10.7181 264.411L128.908 240.82Z" fill="#3E434C"/>
<g style="mix-blend-mode:multiply" opacity="0.3">
<path d="M121.912 184.19L-16.8672 207.638L-12.3203 234.549L126.458 211.101L121.912 184.19Z" fill="#333A42"/>
</g>
</g>
<path d="M110.403 172.289L-12.395 193.037L-7.2782 223.321L115.519 202.574L110.403 172.289Z" fill="#80B4E3"/>
<path d="M56.1926 177.113L37.8667 180.21L44.2604 218.052L62.5863 214.955L56.1926 177.113Z" fill="#3E434C"/>
<path d="M77.05 423.426L74.3244 422.493C67.2633 424.212 60.9888 420.042 57.312 411.096C50.9826 395.694 53.1595 367.504 69.1475 360.151C76.8122 356.62 81.3488 358.541 83.8001 360.754C89.0867 365.547 89.6904 376.194 85.7209 394.212C84.3672 400.358 82.6659 406.34 81.2574 410.968L81.6415 410.822L77.05 423.426ZM76.8305 366.736C75.8244 366.736 74.3975 367.139 72.7146 367.907C68.0499 370.047 64.5742 376.12 63.184 384.535C61.8669 392.492 62.6718 401.639 65.2145 407.822C66.9157 411.956 68.928 414.096 71.2329 414.224C72.6231 410.035 75.3671 401.365 77.361 392.346C81.9891 371.364 78.4586 367.45 78.0378 367.065C77.7817 366.828 77.361 366.718 76.8305 366.718V366.736Z" fill="#BA253E"/>
<path d="M86.0131 429.426C80.3057 429.426 75.9703 426.938 73.7203 422.218L71.2324 420.7L78.1654 409.176L78.2935 409.56C81.0008 405.554 84.5862 400.486 88.5192 395.566C100.025 381.133 108.678 374.913 115.739 376.011C119.013 376.523 123.349 378.828 125.434 387.023C129.77 404.072 109.227 423.499 93.2754 428.273C90.6778 429.042 88.2448 429.426 86.0131 429.426ZM82.0618 419.42C83.6167 421.139 86.5436 421.359 90.8241 420.078C97.2449 418.157 104.855 413.017 110.215 406.999C115.885 400.615 118.41 394.102 117.148 389.127C116.452 386.364 115.428 384.627 114.44 384.462C113.891 384.37 108.605 384.096 95.2144 400.907C89.4522 408.133 84.4399 415.706 82.0618 419.42Z" fill="#BA253E"/>
<path d="M77.4705 443.146L70.4644 438.243C70.6839 437.914 93.5866 405.883 125.361 426.426C136.849 433.853 146.307 436.213 153.459 433.469C162.094 430.158 164.911 420.042 164.947 419.95L173.216 422.127C173.069 422.712 169.337 436.469 156.624 441.426C146.746 445.268 134.672 442.652 120.715 433.633C95.8 417.536 78.2023 442.121 77.4705 443.164V443.146Z" fill="#BA253E"/>
<path d="M119.362 448.712L25.4395 403.893L-16.8112 492.434L77.1115 537.253L119.362 448.712Z" fill="#518D71"/>
<mask id="mask3_116_457" style="mask-type:luminance" maskUnits="userSpaceOnUse" x="-17" y="403" width="137" height="135">
<path d="M119.362 448.712L25.4395 403.893L-16.8112 492.434L77.1115 537.253L119.362 448.712Z" fill="white"/>
</mask>
<g mask="url(#mask3_116_457)">
<path d="M-48.5674 451.963L95.288 401.035L99.3124 412.414L-46.8296 464.128L-48.5674 451.963Z" fill="#8CB785"/>
<path d="M-37.5005 483.225L106.355 432.316L110.379 443.694L-35.7627 495.408L-37.5005 483.225Z" fill="#8CB785"/>
<path d="M-26.4326 514.506L117.423 463.597L121.447 474.957L-24.6948 526.689L-26.4326 514.506Z" fill="#8CB785"/>
<path d="M-15.3657 545.769L128.49 494.86L132.514 506.238L-13.6279 557.952L-15.3657 545.769Z" fill="#8CB785"/>
<path d="M87.8038 403.419L78.9712 399.204L17.9862 527.004L26.8188 531.219L87.8038 403.419Z" fill="#BA253E"/>
<g style="mix-blend-mode:multiply" opacity="0.3">
<path d="M116.644 501.941L-10.3799 441.327L-13.5627 447.997L113.462 508.611L116.644 501.941Z" fill="#564F4F"/>
</g>
<path d="M113.119 503.396L116.791 495.703L-11.0097 434.718L-14.6809 442.411L113.119 503.396Z" fill="#BA253E"/>
<g style="mix-blend-mode:multiply" opacity="0.3">
<path d="M140.044 452.925L13.0195 392.311L1.2653 416.943L128.29 477.558L140.044 452.925Z" fill="#564F4F"/>
</g>
</g>
<path d="M131.025 450.02L18.6279 396.385L11.8291 410.633L124.226 464.267L131.025 450.02Z" fill="#518D71"/>
<path d="M84.2263 423.356L66.4951 414.895L56.545 435.747L74.2762 444.208L84.2263 423.356Z" fill="#BA253E"/>
<path d="M491.933 98.3244C483.098 90.0194 471.573 79.8302 462.957 72.3484C469.268 68.9277 474.244 63.0739 476.402 55.6287C480.665 40.8664 472.158 25.4454 457.396 21.1832C442.634 16.9209 427.213 25.4271 422.95 40.1895C420.975 47.0494 421.743 54.0555 424.633 60.019C410.969 63.0191 389.054 67.9033 382.761 69.696C367.285 74.1046 371.675 95.7999 386.785 95.7268C401.895 95.6536 411.517 93.1109 411.517 93.1109C411.517 93.1109 389.511 149.124 383.566 163.1C378.224 175.648 400.45 186.953 407.987 173.142C415.524 159.331 425.566 139.776 425.566 139.776C425.566 139.776 424.816 160.41 423.646 175.1C422.182 193.466 448.378 195.899 450.701 173.087C453.243 148.118 457.03 105.331 457.03 105.331C457.03 105.331 469.195 115.959 477.317 122.288C487.781 130.428 507.756 113.233 491.915 98.3244H491.933Z" fill="#925F30"/>
<mask id="mask4_116_457" style="mask-type:luminance" maskUnits="userSpaceOnUse" x="373" y="20" width="125" height="170">
<path d="M491.933 98.3244C483.098 90.0194 471.573 79.8302 462.957 72.3484C469.268 68.9277 474.244 63.0739 476.402 55.6287C480.665 40.8664 472.158 25.4454 457.396 21.1832C442.634 16.9209 427.213 25.4271 422.95 40.1895C420.975 47.0494 421.743 54.0555 424.633 60.019C410.969 63.0191 389.054 67.9033 382.761 69.696C367.285 74.1046 371.675 95.7999 386.785 95.7268C401.895 95.6536 411.517 93.1109 411.517 93.1109C411.517 93.1109 389.511 149.124 383.566 163.1C378.224 175.648 400.45 186.953 407.987 173.142C415.524 159.331 425.566 139.776 425.566 139.776C425.566 139.776 424.816 160.41 423.646 175.1C422.182 193.466 448.378 195.899 450.701 173.087C453.243 148.118 457.03 105.331 457.03 105.331C457.03 105.331 469.195 115.959 477.317 122.288C487.781 130.428 507.756 113.233 491.915 98.3244H491.933Z" fill="white"/>
</mask>
<g mask="url(#mask4_116_457)">
<path d="M388.852 103.135C388.193 103.135 387.645 102.641 387.571 101.965L384.023 62.5069C383.968 61.7934 384.48 61.1715 385.193 61.1166C385.907 61.0617 386.529 61.5739 386.584 62.2873L390.132 101.745C390.187 102.459 389.675 103.081 388.962 103.135C388.925 103.135 388.888 103.135 388.852 103.135Z" fill="#FAFAF7"/>
<path d="M464.182 126.184C463.871 126.184 463.56 126.075 463.322 125.855C462.792 125.38 462.755 124.575 463.231 124.044L495.17 88.8669C495.646 88.3364 496.451 88.2999 496.981 88.7755C497.512 89.2511 497.549 90.056 497.073 90.5865L465.134 125.764C464.877 126.038 464.53 126.184 464.182 126.184Z" fill="#FAFAF7"/>
<path d="M462.006 175.081C462.006 175.081 461.951 175.081 461.933 175.081L416.768 172.337L382.615 155.16C381.974 154.849 381.718 154.063 382.048 153.441C382.359 152.801 383.145 152.563 383.767 152.874L417.463 169.813L462.097 172.52C462.811 172.557 463.341 173.179 463.305 173.874C463.268 174.551 462.701 175.081 462.024 175.081H462.006Z" fill="#FAFAF7"/>
<path d="M458.201 125.636C428.585 125.636 402.462 110.306 402.188 110.142C401.584 109.776 401.383 108.989 401.749 108.385C402.115 107.782 402.901 107.581 403.505 107.946C403.779 108.111 431.2 124.209 461.347 123.02C462.079 123.02 462.646 123.55 462.683 124.245C462.701 124.959 462.152 125.544 461.457 125.581C460.378 125.617 459.28 125.636 458.219 125.636H458.201Z" fill="#FAFAF7"/>
<path d="M397.524 176.618C395.018 176.618 392.383 175.63 389.786 173.691C383.383 168.935 385.889 160.63 388.103 156.898C388.469 156.295 389.255 156.093 389.859 156.459C390.463 156.825 390.664 157.612 390.316 158.215C390.097 158.581 385.176 167.087 391.322 171.642C394.085 173.691 396.7 174.441 399.097 173.874C401.987 173.179 404.585 170.563 406.798 166.081C407.109 165.441 407.877 165.185 408.518 165.496C409.158 165.807 409.414 166.575 409.103 167.215C406.542 172.411 403.377 175.484 399.701 176.362C398.987 176.527 398.274 176.618 397.542 176.618H397.524Z" fill="#FAFAF7"/>
<path d="M437.347 186.368C436.048 186.368 434.694 186.112 433.286 185.6C426.938 183.295 426.646 175.575 427.377 171.825C427.505 171.13 428.182 170.673 428.877 170.819C429.572 170.947 430.03 171.624 429.883 172.319C429.865 172.447 428.292 181.063 434.146 183.203C436.762 184.155 439.14 183.972 441.042 182.673C443.585 180.917 445.103 177.313 445.176 172.795C445.176 172.081 445.743 171.533 446.475 171.533C447.189 171.533 447.756 172.136 447.737 172.831C447.646 178.191 445.743 182.563 442.506 184.777C440.969 185.838 439.213 186.368 437.329 186.368H437.347Z" fill="#FAFAF7"/>
</g>
<path d="M439.34 45.3481C438.736 47.4152 436.578 48.6043 434.511 48.0189C432.444 47.4335 431.255 45.2567 431.84 43.1896C432.425 41.1225 434.602 39.9334 436.669 40.5188C438.737 41.1042 439.926 43.281 439.34 45.3481Z" fill="#FAFAF7"/>
<path d="M466.524 53.1958C465.921 55.2629 463.762 56.4519 461.695 55.8665C459.628 55.2812 458.439 53.1043 459.024 51.0372C459.628 48.9701 461.786 47.7811 463.853 48.3664C465.921 48.9518 467.11 51.1287 466.524 53.1958Z" fill="#FAFAF7"/>
<path d="M444.847 81.7327C444.243 83.7998 442.085 84.9888 440.018 84.4034C437.951 83.8181 436.762 81.6412 437.347 79.5741C437.932 77.507 440.109 76.318 442.176 76.9034C444.243 77.4887 445.432 79.6656 444.847 81.7327Z" fill="#EBC559"/>
<path d="M440.511 96.7146C439.908 98.7817 437.749 99.9707 435.682 99.3853C433.615 98.8 432.426 96.6231 433.011 94.556C433.615 92.4889 435.774 91.2999 437.841 91.8852C439.908 92.4889 441.097 94.6475 440.511 96.7146Z" fill="#EBC559"/>
<path d="M436.194 111.696C435.59 113.764 433.432 114.953 431.365 114.367C429.298 113.782 428.109 111.605 428.694 109.538C429.298 107.471 431.456 106.282 433.523 106.867C435.591 107.453 436.78 109.629 436.194 111.696Z" fill="#EBC559"/>
<path d="M451.25 60.2385C443.31 60.2385 438.719 54.8055 438.499 54.5311C438.042 53.9824 438.134 53.1775 438.664 52.7202C439.213 52.2628 440.018 52.3543 440.475 52.8848C440.695 53.1592 446.127 59.5068 455.329 57.1287C456.024 56.9458 456.719 57.3665 456.884 58.0434C457.067 58.7202 456.646 59.4336 455.969 59.5983C454.286 60.0373 452.713 60.2202 451.25 60.2202V60.2385Z" fill="#FAFAF7"/>
<path d="M433.268 53.9275C432.646 56.0495 430.432 57.2934 428.292 56.6714C426.17 56.0495 424.926 53.836 425.548 51.6957C426.17 49.5738 428.383 48.3298 430.524 48.9518C432.646 49.5738 433.89 51.7872 433.268 53.9275Z" fill="#CD374C"/>
<path d="M468.206 64.0252C467.584 66.1471 465.371 67.3911 463.231 66.7691C461.109 66.1471 459.865 63.9337 460.487 61.7934C461.109 59.6715 463.322 58.4275 465.462 59.0495C467.584 59.6715 468.828 61.8849 468.206 64.0252Z" fill="#CD374C"/>
<path d="M431.493 37.9395C431.493 37.9395 442.34 38.9456 443.804 37.8846C445.267 36.8236 444.773 33.4028 443.694 32.598C442.615 31.7931 432.773 32.3967 431.932 33.6224C431.09 34.848 430.578 37.1712 431.511 37.9212L431.493 37.9395Z" fill="#523D19"/>
<path d="M469.908 49.025C469.908 49.025 460.194 44.0859 459.517 42.4212C458.859 40.7566 461.09 38.1224 462.426 38.0127C463.761 37.9029 471.774 43.6652 471.828 45.1652C471.883 46.6652 471.078 48.8786 469.889 49.025H469.908Z" fill="#523D19"/>
<path d="M488.53 341.858C488.53 343.157 487.487 344.199 486.189 344.199C484.89 344.199 483.847 343.157 483.847 341.858C483.847 340.559 484.89 339.516 486.189 339.516C487.487 339.516 488.53 340.559 488.53 341.858Z" fill="#FAFAF7"/>
<path d="M192.387 38.3053C193.68 38.3053 194.728 37.257 194.728 35.9639C194.728 34.6707 193.68 33.6224 192.387 33.6224C191.094 33.6224 190.045 34.6707 190.045 35.9639C190.045 37.257 191.094 38.3053 192.387 38.3053Z" fill="#FAFAF7"/>
<path d="M26.3234 360.114C27.6166 360.114 28.6649 359.066 28.6649 357.773C28.6649 356.479 27.6166 355.431 26.3234 355.431C25.0303 355.431 23.9819 356.479 23.9819 357.773C23.9819 359.066 25.0303 360.114 26.3234 360.114Z" fill="#FAFAF7"/>
<path d="M495.92 458.256C497.213 458.256 498.262 457.207 498.262 455.914C498.262 454.621 497.213 453.573 495.92 453.573C494.627 453.573 493.579 454.621 493.579 455.914C493.579 457.207 494.627 458.256 495.92 458.256Z" fill="#FAFAF7"/>
<path d="M151.446 687.685C152.74 687.685 153.788 686.637 153.788 685.344C153.788 684.05 152.74 683.002 151.446 683.002C150.153 683.002 149.105 684.05 149.105 685.344C149.105 686.637 150.153 687.685 151.446 687.685Z" fill="#FAFAF7"/>
<path d="M497.841 266.217C499.135 266.217 500.183 265.168 500.183 263.875C500.183 262.582 499.135 261.534 497.841 261.534C496.548 261.534 495.5 262.582 495.5 263.875C495.5 265.168 496.548 266.217 497.841 266.217Z" fill="#FAFAF7"/>
<path d="M219.679 691.087C220.973 691.087 222.021 690.039 222.021 688.746C222.021 687.453 220.973 686.405 219.679 686.405C218.386 686.405 217.338 687.453 217.338 688.746C217.338 690.039 218.386 691.087 219.679 691.087Z" fill="#FAFAF7"/>
<path d="M375.498 23.5978C376.791 23.5978 377.839 22.5495 377.839 21.2563C377.839 19.9632 376.791 18.9149 375.498 18.9149C374.205 18.9149 373.156 19.9632 373.156 21.2563C373.156 22.5495 374.205 23.5978 375.498 23.5978Z" fill="#FAFAF7"/>
<path d="M496.067 47.4701C497.36 47.4701 498.408 46.4218 498.408 45.1286C498.408 43.8354 497.36 42.7871 496.067 42.7871C494.773 42.7871 493.725 43.8354 493.725 45.1286C493.725 46.4218 494.773 47.4701 496.067 47.4701Z" fill="#FAFAF7"/>
<path d="M13.8112 602.513C15.1044 602.513 16.1527 601.465 16.1527 600.172C16.1527 598.879 15.1044 597.83 13.8112 597.83C12.518 597.83 11.4697 598.879 11.4697 600.172C11.4697 601.465 12.518 602.513 13.8112 602.513Z" fill="#FAFAF7"/>
<path d="M474.701 316.504C474.701 317.803 473.658 318.845 472.359 318.845C471.06 318.845 470.018 317.803 470.018 316.504C470.018 315.205 471.06 314.162 472.359 314.162C473.658 314.162 474.701 315.205 474.701 316.504Z" fill="#FAFAF7"/>
<path d="M495.006 145.081C495.006 146.38 493.964 147.423 492.665 147.423C491.366 147.423 490.323 146.38 490.323 145.081C490.323 143.782 491.366 142.74 492.665 142.74C493.964 142.74 495.006 143.782 495.006 145.081Z" fill="#FAFAF7"/>
<path d="M251.527 30.2748C252.82 30.2748 253.869 29.2264 253.869 27.9333C253.869 26.6401 252.82 25.5918 251.527 25.5918C250.234 25.5918 249.186 26.6401 249.186 27.9333C249.186 29.2264 250.234 30.2748 251.527 30.2748Z" fill="#FAFAF7"/>
<path d="M34.2809 558.098C35.5741 558.098 36.6224 557.05 36.6224 555.757C36.6224 554.463 35.5741 553.415 34.2809 553.415C32.9878 553.415 31.9395 554.463 31.9395 555.757C31.9395 557.05 32.9878 558.098 34.2809 558.098Z" fill="#FAFAF7"/>
<path d="M21.8417 545.439C21.8417 546.738 20.799 547.781 19.5002 547.781C18.2014 547.781 17.1587 546.738 17.1587 545.439C17.1587 544.141 18.2014 543.098 19.5002 543.098C20.799 543.098 21.8417 544.141 21.8417 545.439Z" fill="#FAFAF7"/>
<path d="M89.0311 17.7624C89.0311 19.0612 87.9884 20.1039 86.6896 20.1039C85.3908 20.1039 84.3481 19.0612 84.3481 17.7624C84.3481 16.4636 85.3908 15.4209 86.6896 15.4209C87.9884 15.4209 89.0311 16.4636 89.0311 17.7624Z" fill="#FAFAF7"/>
<path d="M30.9518 117.916C32.245 117.916 33.2933 116.868 33.2933 115.575C33.2933 114.281 32.245 113.233 30.9518 113.233C29.6587 113.233 28.6104 114.281 28.6104 115.575C28.6104 116.868 29.6587 117.916 30.9518 117.916Z" fill="#FAFAF7"/>
<path d="M483.225 306.168C483.872 306.168 484.396 305.644 484.396 304.998C484.396 304.351 483.872 303.827 483.225 303.827C482.579 303.827 482.055 304.351 482.055 304.998C482.055 305.644 482.579 306.168 483.225 306.168Z" fill="#FAFAF7"/>
<path d="M489.207 210.021C489.854 210.021 490.378 209.497 490.378 208.85C490.378 208.203 489.854 207.679 489.207 207.679C488.561 207.679 488.037 208.203 488.037 208.85C488.037 209.497 488.561 210.021 489.207 210.021Z" fill="#FAFAF7"/>
<path d="M277.723 29.1772C278.37 29.1772 278.894 28.653 278.894 28.0064C278.894 27.3599 278.37 26.8357 277.723 26.8357C277.076 26.8357 276.552 27.3599 276.552 28.0064C276.552 28.653 277.076 29.1772 277.723 29.1772Z" fill="#FAFAF7"/>
<path d="M19.5003 570.537C20.1469 570.537 20.6711 570.013 20.6711 569.367C20.6711 568.72 20.1469 568.196 19.5003 568.196C18.8537 568.196 18.3296 568.72 18.3296 569.367C18.3296 570.013 18.8537 570.537 19.5003 570.537Z" fill="#FAFAF7"/>
<path d="M17.2679 34.8663C17.9145 34.8663 18.4387 34.3421 18.4387 33.6955C18.4387 33.0489 17.9145 32.5248 17.2679 32.5248C16.6213 32.5248 16.0972 33.0489 16.0972 33.6955C16.0972 34.3421 16.6213 34.8663 17.2679 34.8663Z" fill="#FAFAF7"/>
<path d="M470.567 415.212C471.213 415.212 471.737 414.688 471.737 414.042C471.737 413.395 471.213 412.871 470.567 412.871C469.92 412.871 469.396 413.395 469.396 414.042C469.396 414.688 469.92 415.212 470.567 415.212Z" fill="#FAFAF7"/>
<path d="M168.495 702.466C169.142 702.466 169.666 701.941 169.666 701.295C169.666 700.648 169.142 700.124 168.495 700.124C167.849 700.124 167.325 700.648 167.325 701.295C167.325 701.941 167.849 702.466 168.495 702.466Z" fill="#FAFAF7"/>
<path d="M480.171 202.429C480.817 202.429 481.341 201.905 481.341 201.258C481.341 200.612 480.817 200.088 480.171 200.088C479.524 200.088 479 200.612 479 201.258C479 201.905 479.524 202.429 480.171 202.429Z" fill="#FAFAF7"/>
<path d="M10.4085 377.181C11.0551 377.181 11.5793 376.657 11.5793 376.011C11.5793 375.364 11.0551 374.84 10.4085 374.84C9.76196 374.84 9.23779 375.364 9.23779 376.011C9.23779 376.657 9.76196 377.181 10.4085 377.181Z" fill="#FAFAF7"/>
<path d="M32.0492 384.041C32.6957 384.041 33.2199 383.517 33.2199 382.87C33.2199 382.224 32.6957 381.7 32.0492 381.7C31.4026 381.7 30.8784 382.224 30.8784 382.87C30.8784 383.517 31.4026 384.041 32.0492 384.041Z" fill="#FAFAF7"/>
<path d="M265.174 13.2441C265.82 13.2441 266.344 12.7199 266.344 12.0733C266.344 11.4267 265.82 10.9026 265.174 10.9026C264.527 10.9026 264.003 11.4267 264.003 12.0733C264.003 12.7199 264.527 13.2441 265.174 13.2441Z" fill="#FAFAF7"/>
<path d="M99.1838 29.1406C99.1838 29.7808 98.6533 30.3113 98.013 30.3113C97.3728 30.3113 96.8423 29.7808 96.8423 29.1406C96.8423 28.5003 97.3728 27.9698 98.013 27.9698C98.6533 27.9698 99.1838 28.5003 99.1838 29.1406Z" fill="#FAFAF7"/>
<path d="M37.7376 84.8974C38.3842 84.8974 38.9084 84.3732 38.9084 83.7266C38.9084 83.08 38.3842 82.5559 37.7376 82.5559C37.0911 82.5559 36.5669 83.08 36.5669 83.7266C36.5669 84.3732 37.0911 84.8974 37.7376 84.8974Z" fill="#FAFAF7"/>
<path d="M349.303 37.1346C349.95 37.1346 350.474 36.6104 350.474 35.9639C350.474 35.3173 349.95 34.7931 349.303 34.7931C348.656 34.7931 348.132 35.3173 348.132 35.9639C348.132 36.6104 348.656 37.1346 349.303 37.1346Z" fill="#FAFAF7"/>
<path d="M492.682 16.6648C492.682 17.3051 492.152 17.8356 491.512 17.8356C490.871 17.8356 490.341 17.3051 490.341 16.6648C490.341 16.0246 490.871 15.4941 491.512 15.4941C492.152 15.4941 492.682 16.0246 492.682 16.6648Z" fill="#FAFAF7"/>
<path d="M474.463 158.874C475.109 158.874 475.633 158.35 475.633 157.703C475.633 157.057 475.109 156.532 474.463 156.532C473.816 156.532 473.292 157.057 473.292 157.703C473.292 158.35 473.816 158.874 474.463 158.874Z" fill="#FAFAF7"/>
<path d="M59.3425 20.0124C59.3425 20.6527 58.812 21.1832 58.1717 21.1832C57.5315 21.1832 57.001 20.6527 57.001 20.0124C57.001 19.3722 57.5315 18.8417 58.1717 18.8417C58.812 18.8417 59.3425 19.3722 59.3425 20.0124Z" fill="#FAFAF7"/>
<path d="M496.305 371.035C496.951 371.035 497.475 370.511 497.475 369.864C497.475 369.218 496.951 368.693 496.305 368.693C495.658 368.693 495.134 369.218 495.134 369.864C495.134 370.511 495.658 371.035 496.305 371.035Z" fill="#FAFAF7"/>
<path d="M492.646 493.195C492.646 493.835 492.115 494.366 491.475 494.366C490.835 494.366 490.304 493.835 490.304 493.195C490.304 492.555 490.835 492.024 491.475 492.024C492.115 492.024 492.646 492.555 492.646 493.195Z" fill="#FAFAF7"/>
<path d="M479.036 475.03C479.036 475.67 478.505 476.201 477.865 476.201C477.225 476.201 476.694 475.67 476.694 475.03C476.694 474.39 477.225 473.859 477.865 473.859C478.505 473.859 479.036 474.39 479.036 475.03Z" fill="#FAFAF7"/>
<path d="M192.349 691.124C192.996 691.124 193.52 690.6 193.52 689.953C193.52 689.307 192.996 688.783 192.349 688.783C191.703 688.783 191.179 689.307 191.179 689.953C191.179 690.6 191.703 691.124 192.349 691.124Z" fill="#FAFAF7"/>
<path d="M442.706 421.853C442.706 422.731 442.706 423.572 442.724 424.432C442.724 422.786 442.706 421.853 442.706 421.853Z" fill="#65A387"/>
<path d="M546.995 688.837C546.995 688.837 594.355 702.905 640.581 674.77C600.154 682.984 562.013 664.215 562.013 664.215C562.013 664.215 581.66 664.215 620.935 639.593C543.537 659.514 490.396 637.252 490.396 637.252C490.396 637.252 524.805 636.373 559.708 610.288C491.549 607.946 463.817 558.72 463.817 558.72C463.817 558.72 484.616 561.062 525.043 550.507C476.53 550.507 446.475 522.372 446.475 522.372C446.475 522.372 458.036 521.201 490.378 514.159C479.256 512.457 420.993 496.762 419.932 429.847C419.822 442.889 415.999 504.738 354.059 514.159C386.401 521.183 397.962 522.372 397.962 522.372C397.962 522.372 367.925 550.507 319.394 550.507C359.822 561.062 380.621 558.72 380.621 558.72C380.621 558.72 352.889 607.946 284.729 610.288C327.004 639.154 354.041 637.252 354.041 637.252C354.041 637.252 322.394 665.66 223.503 665.24C262.778 689.862 282.424 689.862 282.424 689.862C282.424 689.862 267.754 716.222 206.619 722.46C252.827 750.594 297.699 728.698 297.699 728.698C297.699 728.698 292.833 736.747 254.692 754.326C307.833 767.223 549.867 738.338 589.727 728.679C551.604 711.1 546.976 688.819 546.976 688.819L546.995 688.837Z" fill="#518D71"/>
<mask id="mask5_116_457" style="mask-type:luminance" maskUnits="userSpaceOnUse" x="206" y="429" width="435" height="329">
<path d="M546.995 688.837C546.995 688.837 594.355 702.905 640.581 674.77C600.154 682.984 562.013 664.215 562.013 664.215C562.013 664.215 581.66 664.215 620.935 639.593C543.537 659.514 490.396 637.252 490.396 637.252C490.396 637.252 524.805 636.373 559.708 610.288C491.549 607.946 463.817 558.72 463.817 558.72C463.817 558.72 484.616 561.062 525.043 550.507C476.53 550.507 446.475 522.372 446.475 522.372C446.475 522.372 458.036 521.201 490.378 514.159C479.256 512.457 420.993 496.762 419.932 429.847C419.822 442.889 415.999 504.738 354.059 514.159C386.401 521.183 397.962 522.372 397.962 522.372C397.962 522.372 367.925 550.507 319.394 550.507C359.822 561.062 380.621 558.72 380.621 558.72C380.621 558.72 352.889 607.946 284.729 610.288C327.004 639.154 354.041 637.252 354.041 637.252C354.041 637.252 322.394 665.66 223.503 665.24C262.778 689.862 282.424 689.862 282.424 689.862C282.424 689.862 267.754 716.222 206.619 722.46C252.827 750.594 297.699 728.698 297.699 728.698C297.699 728.698 292.833 736.747 254.692 754.326C307.833 767.223 549.867 738.338 589.727 728.679C551.604 711.1 546.976 688.819 546.976 688.819L546.995 688.837Z" fill="white"/>
</mask>
<g mask="url(#mask5_116_457)">
<path d="M250.467 697.691L282.425 689.88C282.425 689.88 313.047 697.161 338.95 682.051C337.871 692.295 320.602 709.563 320.602 709.563C320.602 709.563 355.67 710.643 380.493 685.819C367.542 714.411 351.901 726.814 351.901 726.814C351.901 726.814 400.999 727.344 417.189 690.667C433.378 708.466 468.445 712.252 468.445 712.252C468.445 712.252 446.329 691.746 448.488 668.02C485.165 696.082 535.343 690.685 535.343 690.685L553.142 745.18L273.681 767.845L219.186 750.576L194.912 727.911L250.485 697.691H250.467Z" fill="#3F6B59"/>
<path d="M326.547 639.428C326.547 639.428 340.029 646.435 376.724 628.636C364.852 643.197 352.45 651.3 352.45 651.3C352.45 651.3 383.2 650.77 398.31 631.873C403.706 642.117 431.219 648.063 431.219 648.063C431.219 648.063 420.975 628.105 425.292 611.916C452.274 635.66 471.683 636.739 471.683 636.739L465.756 625.416C465.756 625.416 481.396 639.977 518.092 639.447C571.507 622.178 577.434 598.452 577.434 598.452C577.434 598.452 518.092 616.8 464.146 590.367C474.39 605.477 491.659 611.404 491.659 611.404C491.659 611.404 463.067 614.093 438.243 596.843C442.012 606.556 442.56 609.245 442.56 609.245C442.56 609.245 419.895 603.318 413.42 583.342C404.255 607.087 391.304 613.562 391.304 613.562V595.214C391.304 595.214 348.681 625.965 280.174 609.776C281.784 629.203 326.565 639.447 326.565 639.447L326.547 639.428Z" fill="#3F6B59"/>
<path d="M353.511 527.201L397.945 522.39C397.945 522.39 395.585 536.385 386.951 540.702C402.591 539.092 408.536 529.378 408.536 529.378C408.536 529.378 413.384 542.86 431.732 546.098C428.494 535.854 429.573 525.061 429.573 525.061C429.573 525.061 446.842 545.568 486.757 539.092C471.116 532.616 446.457 522.409 446.457 522.409L489.995 519.665C489.995 519.665 496.47 506.183 494.842 505.634C493.232 505.104 446.293 508.323 430.634 495.39C425.238 512.11 405.28 514.268 405.28 514.268L416.603 501.317C416.603 501.317 366.426 517.506 336.755 513.72C363.188 525.592 351.316 527.75 351.316 527.75" fill="#3F6B59"/>
<path d="M411.371 446.585C407.182 446.822 404.054 451.396 404.603 455.548C405.151 459.701 408.645 463.103 412.633 464.402C416.621 465.701 421.011 465.207 425.036 463.981C432.719 461.64 440.036 455.859 441.316 447.938C441.81 444.902 441.207 441.426 438.792 439.524" fill="#3F6B59"/>
</g>
<path d="M417.169 428.475L410.693 451.67C410.693 451.67 418.779 454.359 430.651 451.67C426.883 443.036 423.096 427.926 423.096 427.926" fill="#DDB34B"/>
<path d="M420.408 388.651L429.097 406.267L448.542 409.084L434.475 422.804L437.804 442.158L420.408 433.011L403.029 442.158L406.359 422.804L392.292 409.084L411.719 406.267L420.408 388.651Z" fill="#DDB34B"/>
<mask id="mask6_116_457" style="mask-type:luminance" maskUnits="userSpaceOnUse" x="392" y="388" width="57" height="55">
<path d="M420.408 388.651L429.097 406.267L448.542 409.084L434.475 422.804L437.804 442.158L420.408 433.011L403.029 442.158L406.359 422.804L392.292 409.084L411.719 406.267L420.408 388.651Z" fill="white"/>
</mask>
<g mask="url(#mask6_116_457)">
<path d="M420.408 388.651V417.151L411.719 406.267L410.164 390.718L420.408 388.651Z" fill="#CE8943"/>
<path d="M457.634 404.2L446.841 410.145L420.408 417.151L429.097 406.267L457.634 404.2Z" fill="#CE8943"/>
<path d="M446.311 439.267L437.805 442.158L420.408 417.151L434.475 422.804L446.311 439.267Z" fill="#CE8943"/>
<path d="M405.316 446.822L403.03 442.158L420.408 417.151V433.011L405.316 446.822Z" fill="#CE8943"/>
<path d="M400.45 427.944L406.359 422.804L420.408 417.151L392.292 409.084L400.45 427.944Z" fill="#CE8943"/>
</g>
<path d="M385.943 592.068C385.943 592.068 385.412 583.05 390.717 583.05C396.022 583.05 394.961 592.599 394.961 592.599" fill="#DDB34B"/>
<path d="M390.133 618.209C398.195 618.209 404.731 611.673 404.731 603.611C404.731 595.549 398.195 589.013 390.133 589.013C382.071 589.013 375.535 595.549 375.535 603.611C375.535 611.673 382.071 618.209 390.133 618.209Z" fill="#FAFAF7"/>
<mask id="mask7_116_457" style="mask-type:luminance" maskUnits="userSpaceOnUse" x="375" y="589" width="30" height="30">
<path d="M390.133 618.209C398.195 618.209 404.731 611.673 404.731 603.611C404.731 595.549 398.195 589.013 390.133 589.013C382.071 589.013 375.535 595.549 375.535 603.611C375.535 611.673 382.071 618.209 390.133 618.209Z" fill="white"/>
</mask>
<g mask="url(#mask7_116_457)">
<path d="M412.688 598.05H365.968V610.8H412.688V598.05Z" fill="#DDB34B"/>
</g>
<path d="M446.512 656.898C446.512 656.898 445.981 647.88 451.286 647.88C456.591 647.88 455.53 657.429 455.53 657.429" fill="#DDB34B"/>
<path d="M450.683 683.057C458.745 683.057 465.28 676.521 465.28 668.459C465.28 660.397 458.745 653.861 450.683 653.861C442.621 653.861 436.085 660.397 436.085 668.459C436.085 676.521 442.621 683.057 450.683 683.057Z" fill="#80B4E3"/>
<mask id="mask8_116_457" style="mask-type:luminance" maskUnits="userSpaceOnUse" x="436" y="653" width="30" height="31">
<path d="M450.683 683.057C458.745 683.057 465.28 676.521 465.28 668.459C465.28 660.397 458.745 653.861 450.683 653.861C442.621 653.861 436.085 660.397 436.085 668.459C436.085 676.521 442.621 683.057 450.683 683.057Z" fill="white"/>
</mask>
<g mask="url(#mask8_116_457)">
<path d="M473.256 662.88H426.536V675.63H473.256V662.88Z" fill="#FAFAF7"/>
</g>
<path d="M448.962 544.196C448.962 544.196 448.432 535.177 453.737 535.177C459.042 535.177 457.981 544.726 457.981 544.726" fill="#DDB34B"/>
<path d="M453.133 570.354C461.196 570.354 467.731 563.819 467.731 555.757C467.731 547.695 461.196 541.159 453.133 541.159C445.071 541.159 438.536 547.695 438.536 555.757C438.536 563.819 445.071 570.354 453.133 570.354Z" fill="#3E434C"/>
<mask id="mask9_116_457" style="mask-type:luminance" maskUnits="userSpaceOnUse" x="438" y="541" width="30" height="30">
<path d="M453.133 570.354C461.196 570.354 467.731 563.819 467.731 555.757C467.731 547.695 461.196 541.159 453.133 541.159C445.071 541.159 438.536 547.695 438.536 555.757C438.536 563.819 445.071 570.354 453.133 570.354Z" fill="white"/>
</mask>
<g mask="url(#mask9_116_457)">
<path d="M478.688 565.909H425.968V547.177H478.688V565.909ZM431.968 559.927H472.707V553.177H431.968V559.927Z" fill="#BA253E"/>
</g>
<path d="M319.303 633.758C319.303 633.758 318.772 624.739 324.077 624.739C329.382 624.739 328.321 634.288 328.321 634.288" fill="#DDB34B"/>
<path d="M337.863 647.59C339.142 639.63 333.727 632.14 325.767 630.861C317.807 629.582 310.317 634.998 309.037 642.958C307.758 650.917 313.174 658.407 321.134 659.687C329.094 660.966 336.584 655.55 337.863 647.59Z" fill="#7C4572"/>
<mask id="mask10_116_457" style="mask-type:luminance" maskUnits="userSpaceOnUse" x="308" y="630" width="31" height="30">
<path d="M337.863 647.59C339.142 639.63 333.727 632.14 325.767 630.861C317.807 629.582 310.317 634.998 309.037 642.958C307.758 650.917 313.174 658.407 321.134 659.687C329.094 660.966 336.584 655.55 337.863 647.59Z" fill="white"/>
</mask>
<g mask="url(#mask10_116_457)">
<path d="M346.029 639.739H299.309V645.319H346.029V639.739Z" fill="#BA253E"/>
<path d="M346.029 651.118H299.309V660.666H346.029V651.118Z" fill="#BA253E"/>
</g>
</g>
</svg>
